<mxfile host="app.diagrams.net" agent="Mozilla/5.0 (Macintosh; Intel Mac OS X 10_15_7) AppleWebKit/537.36 (KHTML, like Gecko) Chrome/129.0.0.0 Safari/537.36" version="24.7.16">
  <diagram name="第 1 页" id="1S9KjxyF_pNlLVFp9zng">
    <mxGraphModel dx="928" dy="-1375" grid="0" gridSize="10" guides="1" tooltips="1" connect="1" arrows="1" fold="1" page="0" pageScale="1" pageWidth="827" pageHeight="1169" math="0" shadow="0">
      <root>
        <mxCell id="0" />
        <mxCell id="1" parent="0" />
        <mxCell id="ht5rBl-SjjFZBpGq4qYo-310" value="" style="rounded=0;whiteSpace=wrap;html=1;fillColor=#B3B3B3;fontColor=#333333;strokeColor=#666666;opacity=60;" parent="1" vertex="1">
          <mxGeometry x="385" y="2559.5" width="199" height="198" as="geometry" />
        </mxCell>
        <mxCell id="ht5rBl-SjjFZBpGq4qYo-274" value="" style="rounded=0;whiteSpace=wrap;html=1;fillColor=#B3B3B3;strokeColor=#666666;fontColor=#333333;opacity=60;" parent="1" vertex="1">
          <mxGeometry x="586" y="2362.5" width="199" height="195" as="geometry" />
        </mxCell>
        <mxCell id="ht5rBl-SjjFZBpGq4qYo-1" value="" style="shape=table;startSize=0;container=1;collapsible=0;childLayout=tableLayout;fillColor=none;" parent="1" vertex="1">
          <mxGeometry x="385" y="2363.5" width="400" height="395" as="geometry" />
        </mxCell>
        <mxCell id="ht5rBl-SjjFZBpGq4qYo-2" value="" style="shape=tableRow;horizontal=0;startSize=0;swimlaneHead=0;swimlaneBody=0;strokeColor=inherit;top=0;left=0;bottom=0;right=0;collapsible=0;dropTarget=0;fillColor=none;points=[[0,0.5],[1,0.5]];portConstraint=eastwest;" parent="ht5rBl-SjjFZBpGq4qYo-1" vertex="1">
          <mxGeometry width="400" height="25" as="geometry" />
        </mxCell>
        <mxCell id="ht5rBl-SjjFZBpGq4qYo-3" value="" style="shape=partialRectangle;html=1;whiteSpace=wrap;connectable=0;strokeColor=inherit;overflow=hidden;fillColor=none;top=0;left=0;bottom=0;right=0;pointerEvents=1;" parent="ht5rBl-SjjFZBpGq4qYo-2" vertex="1">
          <mxGeometry width="25" height="25" as="geometry">
            <mxRectangle width="25" height="25" as="alternateBounds" />
          </mxGeometry>
        </mxCell>
        <mxCell id="ht5rBl-SjjFZBpGq4qYo-4" value="" style="shape=partialRectangle;html=1;whiteSpace=wrap;connectable=0;strokeColor=inherit;overflow=hidden;fillColor=none;top=0;left=0;bottom=0;right=0;pointerEvents=1;" parent="ht5rBl-SjjFZBpGq4qYo-2" vertex="1">
          <mxGeometry x="25" width="25" height="25" as="geometry">
            <mxRectangle width="25" height="25" as="alternateBounds" />
          </mxGeometry>
        </mxCell>
        <mxCell id="ht5rBl-SjjFZBpGq4qYo-5" value="" style="shape=partialRectangle;html=1;whiteSpace=wrap;connectable=0;strokeColor=inherit;overflow=hidden;fillColor=none;top=0;left=0;bottom=0;right=0;pointerEvents=1;" parent="ht5rBl-SjjFZBpGq4qYo-2" vertex="1">
          <mxGeometry x="50" width="25" height="25" as="geometry">
            <mxRectangle width="25" height="25" as="alternateBounds" />
          </mxGeometry>
        </mxCell>
        <mxCell id="ht5rBl-SjjFZBpGq4qYo-6" value="" style="shape=partialRectangle;html=1;whiteSpace=wrap;connectable=0;strokeColor=inherit;overflow=hidden;fillColor=none;top=0;left=0;bottom=0;right=0;pointerEvents=1;" parent="ht5rBl-SjjFZBpGq4qYo-2" vertex="1">
          <mxGeometry x="75" width="25" height="25" as="geometry">
            <mxRectangle width="25" height="25" as="alternateBounds" />
          </mxGeometry>
        </mxCell>
        <mxCell id="ht5rBl-SjjFZBpGq4qYo-7" value="" style="shape=partialRectangle;html=1;whiteSpace=wrap;connectable=0;strokeColor=inherit;overflow=hidden;fillColor=none;top=0;left=0;bottom=0;right=0;pointerEvents=1;" parent="ht5rBl-SjjFZBpGq4qYo-2" vertex="1">
          <mxGeometry x="100" width="25" height="25" as="geometry">
            <mxRectangle width="25" height="25" as="alternateBounds" />
          </mxGeometry>
        </mxCell>
        <mxCell id="ht5rBl-SjjFZBpGq4qYo-8" value="" style="shape=partialRectangle;html=1;whiteSpace=wrap;connectable=0;strokeColor=inherit;overflow=hidden;fillColor=none;top=0;left=0;bottom=0;right=0;pointerEvents=1;" parent="ht5rBl-SjjFZBpGq4qYo-2" vertex="1">
          <mxGeometry x="125" width="25" height="25" as="geometry">
            <mxRectangle width="25" height="25" as="alternateBounds" />
          </mxGeometry>
        </mxCell>
        <mxCell id="ht5rBl-SjjFZBpGq4qYo-9" value="" style="shape=partialRectangle;html=1;whiteSpace=wrap;connectable=0;strokeColor=inherit;overflow=hidden;fillColor=none;top=0;left=0;bottom=0;right=0;pointerEvents=1;" parent="ht5rBl-SjjFZBpGq4qYo-2" vertex="1">
          <mxGeometry x="150" width="25" height="25" as="geometry">
            <mxRectangle width="25" height="25" as="alternateBounds" />
          </mxGeometry>
        </mxCell>
        <mxCell id="ht5rBl-SjjFZBpGq4qYo-10" value="" style="shape=partialRectangle;html=1;whiteSpace=wrap;connectable=0;strokeColor=inherit;overflow=hidden;fillColor=none;top=0;left=0;bottom=0;right=0;pointerEvents=1;" parent="ht5rBl-SjjFZBpGq4qYo-2" vertex="1">
          <mxGeometry x="175" width="25" height="25" as="geometry">
            <mxRectangle width="25" height="25" as="alternateBounds" />
          </mxGeometry>
        </mxCell>
        <mxCell id="ht5rBl-SjjFZBpGq4qYo-11" value="" style="shape=partialRectangle;html=1;whiteSpace=wrap;connectable=0;strokeColor=inherit;overflow=hidden;fillColor=none;top=0;left=0;bottom=0;right=0;pointerEvents=1;" parent="ht5rBl-SjjFZBpGq4qYo-2" vertex="1">
          <mxGeometry x="200" width="25" height="25" as="geometry">
            <mxRectangle width="25" height="25" as="alternateBounds" />
          </mxGeometry>
        </mxCell>
        <mxCell id="ht5rBl-SjjFZBpGq4qYo-12" value="" style="shape=partialRectangle;html=1;whiteSpace=wrap;connectable=0;strokeColor=inherit;overflow=hidden;fillColor=none;top=0;left=0;bottom=0;right=0;pointerEvents=1;" parent="ht5rBl-SjjFZBpGq4qYo-2" vertex="1">
          <mxGeometry x="225" width="25" height="25" as="geometry">
            <mxRectangle width="25" height="25" as="alternateBounds" />
          </mxGeometry>
        </mxCell>
        <mxCell id="ht5rBl-SjjFZBpGq4qYo-13" value="" style="shape=partialRectangle;html=1;whiteSpace=wrap;connectable=0;strokeColor=inherit;overflow=hidden;fillColor=none;top=0;left=0;bottom=0;right=0;pointerEvents=1;" parent="ht5rBl-SjjFZBpGq4qYo-2" vertex="1">
          <mxGeometry x="250" width="25" height="25" as="geometry">
            <mxRectangle width="25" height="25" as="alternateBounds" />
          </mxGeometry>
        </mxCell>
        <mxCell id="ht5rBl-SjjFZBpGq4qYo-14" value="" style="shape=partialRectangle;html=1;whiteSpace=wrap;connectable=0;strokeColor=inherit;overflow=hidden;fillColor=none;top=0;left=0;bottom=0;right=0;pointerEvents=1;" parent="ht5rBl-SjjFZBpGq4qYo-2" vertex="1">
          <mxGeometry x="275" width="25" height="25" as="geometry">
            <mxRectangle width="25" height="25" as="alternateBounds" />
          </mxGeometry>
        </mxCell>
        <mxCell id="ht5rBl-SjjFZBpGq4qYo-15" value="" style="shape=partialRectangle;html=1;whiteSpace=wrap;connectable=0;strokeColor=inherit;overflow=hidden;fillColor=none;top=0;left=0;bottom=0;right=0;pointerEvents=1;" parent="ht5rBl-SjjFZBpGq4qYo-2" vertex="1">
          <mxGeometry x="300" width="25" height="25" as="geometry">
            <mxRectangle width="25" height="25" as="alternateBounds" />
          </mxGeometry>
        </mxCell>
        <mxCell id="ht5rBl-SjjFZBpGq4qYo-16" value="" style="shape=partialRectangle;html=1;whiteSpace=wrap;connectable=0;strokeColor=inherit;overflow=hidden;fillColor=none;top=0;left=0;bottom=0;right=0;pointerEvents=1;" parent="ht5rBl-SjjFZBpGq4qYo-2" vertex="1">
          <mxGeometry x="325" width="25" height="25" as="geometry">
            <mxRectangle width="25" height="25" as="alternateBounds" />
          </mxGeometry>
        </mxCell>
        <mxCell id="ht5rBl-SjjFZBpGq4qYo-17" value="" style="shape=partialRectangle;html=1;whiteSpace=wrap;connectable=0;strokeColor=inherit;overflow=hidden;fillColor=none;top=0;left=0;bottom=0;right=0;pointerEvents=1;" parent="ht5rBl-SjjFZBpGq4qYo-2" vertex="1">
          <mxGeometry x="350" width="25" height="25" as="geometry">
            <mxRectangle width="25" height="25" as="alternateBounds" />
          </mxGeometry>
        </mxCell>
        <mxCell id="ht5rBl-SjjFZBpGq4qYo-18" value="" style="shape=partialRectangle;html=1;whiteSpace=wrap;connectable=0;strokeColor=inherit;overflow=hidden;fillColor=none;top=0;left=0;bottom=0;right=0;pointerEvents=1;" parent="ht5rBl-SjjFZBpGq4qYo-2" vertex="1">
          <mxGeometry x="375" width="25" height="25" as="geometry">
            <mxRectangle width="25" height="25" as="alternateBounds" />
          </mxGeometry>
        </mxCell>
        <mxCell id="ht5rBl-SjjFZBpGq4qYo-19" value="" style="shape=tableRow;horizontal=0;startSize=0;swimlaneHead=0;swimlaneBody=0;strokeColor=inherit;top=0;left=0;bottom=0;right=0;collapsible=0;dropTarget=0;fillColor=none;points=[[0,0.5],[1,0.5]];portConstraint=eastwest;" parent="ht5rBl-SjjFZBpGq4qYo-1" vertex="1">
          <mxGeometry y="25" width="400" height="25" as="geometry" />
        </mxCell>
        <mxCell id="ht5rBl-SjjFZBpGq4qYo-20" value="" style="shape=partialRectangle;html=1;whiteSpace=wrap;connectable=0;strokeColor=inherit;overflow=hidden;fillColor=none;top=0;left=0;bottom=0;right=0;pointerEvents=1;" parent="ht5rBl-SjjFZBpGq4qYo-19" vertex="1">
          <mxGeometry width="25" height="25" as="geometry">
            <mxRectangle width="25" height="25" as="alternateBounds" />
          </mxGeometry>
        </mxCell>
        <mxCell id="ht5rBl-SjjFZBpGq4qYo-21" value="&lt;font color=&quot;#ff0000&quot;&gt;1&lt;/font&gt;" style="shape=partialRectangle;html=1;whiteSpace=wrap;connectable=0;strokeColor=inherit;overflow=hidden;fillColor=none;top=0;left=0;bottom=0;right=0;pointerEvents=1;" parent="ht5rBl-SjjFZBpGq4qYo-19" vertex="1">
          <mxGeometry x="25" width="25" height="25" as="geometry">
            <mxRectangle width="25" height="25" as="alternateBounds" />
          </mxGeometry>
        </mxCell>
        <mxCell id="ht5rBl-SjjFZBpGq4qYo-22" value="" style="shape=partialRectangle;html=1;whiteSpace=wrap;connectable=0;strokeColor=inherit;overflow=hidden;fillColor=none;top=0;left=0;bottom=0;right=0;pointerEvents=1;" parent="ht5rBl-SjjFZBpGq4qYo-19" vertex="1">
          <mxGeometry x="50" width="25" height="25" as="geometry">
            <mxRectangle width="25" height="25" as="alternateBounds" />
          </mxGeometry>
        </mxCell>
        <mxCell id="ht5rBl-SjjFZBpGq4qYo-23" value="&lt;font color=&quot;#ff0000&quot;&gt;1&lt;/font&gt;" style="shape=partialRectangle;html=1;whiteSpace=wrap;connectable=0;strokeColor=inherit;overflow=hidden;fillColor=none;top=0;left=0;bottom=0;right=0;pointerEvents=1;" parent="ht5rBl-SjjFZBpGq4qYo-19" vertex="1">
          <mxGeometry x="75" width="25" height="25" as="geometry">
            <mxRectangle width="25" height="25" as="alternateBounds" />
          </mxGeometry>
        </mxCell>
        <mxCell id="ht5rBl-SjjFZBpGq4qYo-24" value="" style="shape=partialRectangle;html=1;whiteSpace=wrap;connectable=0;strokeColor=inherit;overflow=hidden;fillColor=none;top=0;left=0;bottom=0;right=0;pointerEvents=1;" parent="ht5rBl-SjjFZBpGq4qYo-19" vertex="1">
          <mxGeometry x="100" width="25" height="25" as="geometry">
            <mxRectangle width="25" height="25" as="alternateBounds" />
          </mxGeometry>
        </mxCell>
        <mxCell id="ht5rBl-SjjFZBpGq4qYo-25" value="" style="shape=partialRectangle;html=1;whiteSpace=wrap;connectable=0;strokeColor=inherit;overflow=hidden;fillColor=none;top=0;left=0;bottom=0;right=0;pointerEvents=1;" parent="ht5rBl-SjjFZBpGq4qYo-19" vertex="1">
          <mxGeometry x="125" width="25" height="25" as="geometry">
            <mxRectangle width="25" height="25" as="alternateBounds" />
          </mxGeometry>
        </mxCell>
        <mxCell id="ht5rBl-SjjFZBpGq4qYo-26" value="" style="shape=partialRectangle;html=1;whiteSpace=wrap;connectable=0;strokeColor=inherit;overflow=hidden;fillColor=none;top=0;left=0;bottom=0;right=0;pointerEvents=1;" parent="ht5rBl-SjjFZBpGq4qYo-19" vertex="1">
          <mxGeometry x="150" width="25" height="25" as="geometry">
            <mxRectangle width="25" height="25" as="alternateBounds" />
          </mxGeometry>
        </mxCell>
        <mxCell id="ht5rBl-SjjFZBpGq4qYo-27" value="" style="shape=partialRectangle;html=1;whiteSpace=wrap;connectable=0;strokeColor=inherit;overflow=hidden;fillColor=none;top=0;left=0;bottom=0;right=0;pointerEvents=1;" parent="ht5rBl-SjjFZBpGq4qYo-19" vertex="1">
          <mxGeometry x="175" width="25" height="25" as="geometry">
            <mxRectangle width="25" height="25" as="alternateBounds" />
          </mxGeometry>
        </mxCell>
        <mxCell id="ht5rBl-SjjFZBpGq4qYo-28" value="" style="shape=partialRectangle;html=1;whiteSpace=wrap;connectable=0;strokeColor=inherit;overflow=hidden;fillColor=none;top=0;left=0;bottom=0;right=0;pointerEvents=1;" parent="ht5rBl-SjjFZBpGq4qYo-19" vertex="1">
          <mxGeometry x="200" width="25" height="25" as="geometry">
            <mxRectangle width="25" height="25" as="alternateBounds" />
          </mxGeometry>
        </mxCell>
        <mxCell id="ht5rBl-SjjFZBpGq4qYo-29" value="" style="shape=partialRectangle;html=1;whiteSpace=wrap;connectable=0;strokeColor=inherit;overflow=hidden;fillColor=none;top=0;left=0;bottom=0;right=0;pointerEvents=1;" parent="ht5rBl-SjjFZBpGq4qYo-19" vertex="1">
          <mxGeometry x="225" width="25" height="25" as="geometry">
            <mxRectangle width="25" height="25" as="alternateBounds" />
          </mxGeometry>
        </mxCell>
        <mxCell id="ht5rBl-SjjFZBpGq4qYo-30" value="" style="shape=partialRectangle;html=1;whiteSpace=wrap;connectable=0;strokeColor=inherit;overflow=hidden;fillColor=none;top=0;left=0;bottom=0;right=0;pointerEvents=1;" parent="ht5rBl-SjjFZBpGq4qYo-19" vertex="1">
          <mxGeometry x="250" width="25" height="25" as="geometry">
            <mxRectangle width="25" height="25" as="alternateBounds" />
          </mxGeometry>
        </mxCell>
        <mxCell id="ht5rBl-SjjFZBpGq4qYo-31" value="" style="shape=partialRectangle;html=1;whiteSpace=wrap;connectable=0;strokeColor=inherit;overflow=hidden;fillColor=none;top=0;left=0;bottom=0;right=0;pointerEvents=1;" parent="ht5rBl-SjjFZBpGq4qYo-19" vertex="1">
          <mxGeometry x="275" width="25" height="25" as="geometry">
            <mxRectangle width="25" height="25" as="alternateBounds" />
          </mxGeometry>
        </mxCell>
        <mxCell id="ht5rBl-SjjFZBpGq4qYo-32" value="" style="shape=partialRectangle;html=1;whiteSpace=wrap;connectable=0;strokeColor=inherit;overflow=hidden;fillColor=none;top=0;left=0;bottom=0;right=0;pointerEvents=1;" parent="ht5rBl-SjjFZBpGq4qYo-19" vertex="1">
          <mxGeometry x="300" width="25" height="25" as="geometry">
            <mxRectangle width="25" height="25" as="alternateBounds" />
          </mxGeometry>
        </mxCell>
        <mxCell id="ht5rBl-SjjFZBpGq4qYo-33" value="" style="shape=partialRectangle;html=1;whiteSpace=wrap;connectable=0;strokeColor=inherit;overflow=hidden;fillColor=none;top=0;left=0;bottom=0;right=0;pointerEvents=1;" parent="ht5rBl-SjjFZBpGq4qYo-19" vertex="1">
          <mxGeometry x="325" width="25" height="25" as="geometry">
            <mxRectangle width="25" height="25" as="alternateBounds" />
          </mxGeometry>
        </mxCell>
        <mxCell id="ht5rBl-SjjFZBpGq4qYo-34" value="" style="shape=partialRectangle;html=1;whiteSpace=wrap;connectable=0;strokeColor=inherit;overflow=hidden;fillColor=none;top=0;left=0;bottom=0;right=0;pointerEvents=1;" parent="ht5rBl-SjjFZBpGq4qYo-19" vertex="1">
          <mxGeometry x="350" width="25" height="25" as="geometry">
            <mxRectangle width="25" height="25" as="alternateBounds" />
          </mxGeometry>
        </mxCell>
        <mxCell id="ht5rBl-SjjFZBpGq4qYo-35" value="" style="shape=partialRectangle;html=1;whiteSpace=wrap;connectable=0;strokeColor=inherit;overflow=hidden;fillColor=none;top=0;left=0;bottom=0;right=0;pointerEvents=1;" parent="ht5rBl-SjjFZBpGq4qYo-19" vertex="1">
          <mxGeometry x="375" width="25" height="25" as="geometry">
            <mxRectangle width="25" height="25" as="alternateBounds" />
          </mxGeometry>
        </mxCell>
        <mxCell id="ht5rBl-SjjFZBpGq4qYo-36" value="" style="shape=tableRow;horizontal=0;startSize=0;swimlaneHead=0;swimlaneBody=0;strokeColor=inherit;top=0;left=0;bottom=0;right=0;collapsible=0;dropTarget=0;fillColor=none;points=[[0,0.5],[1,0.5]];portConstraint=eastwest;" parent="ht5rBl-SjjFZBpGq4qYo-1" vertex="1">
          <mxGeometry y="50" width="400" height="25" as="geometry" />
        </mxCell>
        <mxCell id="ht5rBl-SjjFZBpGq4qYo-37" value="" style="shape=partialRectangle;html=1;whiteSpace=wrap;connectable=0;strokeColor=inherit;overflow=hidden;fillColor=none;top=0;left=0;bottom=0;right=0;pointerEvents=1;" parent="ht5rBl-SjjFZBpGq4qYo-36" vertex="1">
          <mxGeometry width="25" height="25" as="geometry">
            <mxRectangle width="25" height="25" as="alternateBounds" />
          </mxGeometry>
        </mxCell>
        <mxCell id="ht5rBl-SjjFZBpGq4qYo-38" value="" style="shape=partialRectangle;html=1;whiteSpace=wrap;connectable=0;strokeColor=inherit;overflow=hidden;fillColor=none;top=0;left=0;bottom=0;right=0;pointerEvents=1;" parent="ht5rBl-SjjFZBpGq4qYo-36" vertex="1">
          <mxGeometry x="25" width="25" height="25" as="geometry">
            <mxRectangle width="25" height="25" as="alternateBounds" />
          </mxGeometry>
        </mxCell>
        <mxCell id="ht5rBl-SjjFZBpGq4qYo-39" value="" style="shape=partialRectangle;html=1;whiteSpace=wrap;connectable=0;strokeColor=inherit;overflow=hidden;fillColor=none;top=0;left=0;bottom=0;right=0;pointerEvents=1;" parent="ht5rBl-SjjFZBpGq4qYo-36" vertex="1">
          <mxGeometry x="50" width="25" height="25" as="geometry">
            <mxRectangle width="25" height="25" as="alternateBounds" />
          </mxGeometry>
        </mxCell>
        <mxCell id="ht5rBl-SjjFZBpGq4qYo-40" value="" style="shape=partialRectangle;html=1;whiteSpace=wrap;connectable=0;strokeColor=inherit;overflow=hidden;fillColor=none;top=0;left=0;bottom=0;right=0;pointerEvents=1;" parent="ht5rBl-SjjFZBpGq4qYo-36" vertex="1">
          <mxGeometry x="75" width="25" height="25" as="geometry">
            <mxRectangle width="25" height="25" as="alternateBounds" />
          </mxGeometry>
        </mxCell>
        <mxCell id="ht5rBl-SjjFZBpGq4qYo-41" value="" style="shape=partialRectangle;html=1;whiteSpace=wrap;connectable=0;strokeColor=inherit;overflow=hidden;fillColor=none;top=0;left=0;bottom=0;right=0;pointerEvents=1;" parent="ht5rBl-SjjFZBpGq4qYo-36" vertex="1">
          <mxGeometry x="100" width="25" height="25" as="geometry">
            <mxRectangle width="25" height="25" as="alternateBounds" />
          </mxGeometry>
        </mxCell>
        <mxCell id="ht5rBl-SjjFZBpGq4qYo-42" value="" style="shape=partialRectangle;html=1;whiteSpace=wrap;connectable=0;strokeColor=inherit;overflow=hidden;fillColor=none;top=0;left=0;bottom=0;right=0;pointerEvents=1;" parent="ht5rBl-SjjFZBpGq4qYo-36" vertex="1">
          <mxGeometry x="125" width="25" height="25" as="geometry">
            <mxRectangle width="25" height="25" as="alternateBounds" />
          </mxGeometry>
        </mxCell>
        <mxCell id="ht5rBl-SjjFZBpGq4qYo-43" value="" style="shape=partialRectangle;html=1;whiteSpace=wrap;connectable=0;strokeColor=inherit;overflow=hidden;fillColor=none;top=0;left=0;bottom=0;right=0;pointerEvents=1;" parent="ht5rBl-SjjFZBpGq4qYo-36" vertex="1">
          <mxGeometry x="150" width="25" height="25" as="geometry">
            <mxRectangle width="25" height="25" as="alternateBounds" />
          </mxGeometry>
        </mxCell>
        <mxCell id="ht5rBl-SjjFZBpGq4qYo-44" value="" style="shape=partialRectangle;html=1;whiteSpace=wrap;connectable=0;strokeColor=inherit;overflow=hidden;fillColor=none;top=0;left=0;bottom=0;right=0;pointerEvents=1;" parent="ht5rBl-SjjFZBpGq4qYo-36" vertex="1">
          <mxGeometry x="175" width="25" height="25" as="geometry">
            <mxRectangle width="25" height="25" as="alternateBounds" />
          </mxGeometry>
        </mxCell>
        <mxCell id="ht5rBl-SjjFZBpGq4qYo-45" value="" style="shape=partialRectangle;html=1;whiteSpace=wrap;connectable=0;strokeColor=inherit;overflow=hidden;fillColor=none;top=0;left=0;bottom=0;right=0;pointerEvents=1;" parent="ht5rBl-SjjFZBpGq4qYo-36" vertex="1">
          <mxGeometry x="200" width="25" height="25" as="geometry">
            <mxRectangle width="25" height="25" as="alternateBounds" />
          </mxGeometry>
        </mxCell>
        <mxCell id="ht5rBl-SjjFZBpGq4qYo-46" value="" style="shape=partialRectangle;html=1;whiteSpace=wrap;connectable=0;strokeColor=inherit;overflow=hidden;fillColor=none;top=0;left=0;bottom=0;right=0;pointerEvents=1;" parent="ht5rBl-SjjFZBpGq4qYo-36" vertex="1">
          <mxGeometry x="225" width="25" height="25" as="geometry">
            <mxRectangle width="25" height="25" as="alternateBounds" />
          </mxGeometry>
        </mxCell>
        <mxCell id="ht5rBl-SjjFZBpGq4qYo-47" value="" style="shape=partialRectangle;html=1;whiteSpace=wrap;connectable=0;strokeColor=inherit;overflow=hidden;fillColor=none;top=0;left=0;bottom=0;right=0;pointerEvents=1;" parent="ht5rBl-SjjFZBpGq4qYo-36" vertex="1">
          <mxGeometry x="250" width="25" height="25" as="geometry">
            <mxRectangle width="25" height="25" as="alternateBounds" />
          </mxGeometry>
        </mxCell>
        <mxCell id="ht5rBl-SjjFZBpGq4qYo-48" value="" style="shape=partialRectangle;html=1;whiteSpace=wrap;connectable=0;strokeColor=inherit;overflow=hidden;fillColor=none;top=0;left=0;bottom=0;right=0;pointerEvents=1;" parent="ht5rBl-SjjFZBpGq4qYo-36" vertex="1">
          <mxGeometry x="275" width="25" height="25" as="geometry">
            <mxRectangle width="25" height="25" as="alternateBounds" />
          </mxGeometry>
        </mxCell>
        <mxCell id="ht5rBl-SjjFZBpGq4qYo-49" value="" style="shape=partialRectangle;html=1;whiteSpace=wrap;connectable=0;strokeColor=inherit;overflow=hidden;fillColor=none;top=0;left=0;bottom=0;right=0;pointerEvents=1;" parent="ht5rBl-SjjFZBpGq4qYo-36" vertex="1">
          <mxGeometry x="300" width="25" height="25" as="geometry">
            <mxRectangle width="25" height="25" as="alternateBounds" />
          </mxGeometry>
        </mxCell>
        <mxCell id="ht5rBl-SjjFZBpGq4qYo-50" value="" style="shape=partialRectangle;html=1;whiteSpace=wrap;connectable=0;strokeColor=inherit;overflow=hidden;fillColor=none;top=0;left=0;bottom=0;right=0;pointerEvents=1;" parent="ht5rBl-SjjFZBpGq4qYo-36" vertex="1">
          <mxGeometry x="325" width="25" height="25" as="geometry">
            <mxRectangle width="25" height="25" as="alternateBounds" />
          </mxGeometry>
        </mxCell>
        <mxCell id="ht5rBl-SjjFZBpGq4qYo-51" value="" style="shape=partialRectangle;html=1;whiteSpace=wrap;connectable=0;strokeColor=inherit;overflow=hidden;fillColor=none;top=0;left=0;bottom=0;right=0;pointerEvents=1;" parent="ht5rBl-SjjFZBpGq4qYo-36" vertex="1">
          <mxGeometry x="350" width="25" height="25" as="geometry">
            <mxRectangle width="25" height="25" as="alternateBounds" />
          </mxGeometry>
        </mxCell>
        <mxCell id="ht5rBl-SjjFZBpGq4qYo-52" value="" style="shape=partialRectangle;html=1;whiteSpace=wrap;connectable=0;strokeColor=inherit;overflow=hidden;fillColor=none;top=0;left=0;bottom=0;right=0;pointerEvents=1;" parent="ht5rBl-SjjFZBpGq4qYo-36" vertex="1">
          <mxGeometry x="375" width="25" height="25" as="geometry">
            <mxRectangle width="25" height="25" as="alternateBounds" />
          </mxGeometry>
        </mxCell>
        <mxCell id="ht5rBl-SjjFZBpGq4qYo-53" value="" style="shape=tableRow;horizontal=0;startSize=0;swimlaneHead=0;swimlaneBody=0;strokeColor=inherit;top=0;left=0;bottom=0;right=0;collapsible=0;dropTarget=0;fillColor=none;points=[[0,0.5],[1,0.5]];portConstraint=eastwest;" parent="ht5rBl-SjjFZBpGq4qYo-1" vertex="1">
          <mxGeometry y="75" width="400" height="25" as="geometry" />
        </mxCell>
        <mxCell id="ht5rBl-SjjFZBpGq4qYo-54" value="" style="shape=partialRectangle;html=1;whiteSpace=wrap;connectable=0;strokeColor=inherit;overflow=hidden;fillColor=none;top=0;left=0;bottom=0;right=0;pointerEvents=1;" parent="ht5rBl-SjjFZBpGq4qYo-53" vertex="1">
          <mxGeometry width="25" height="25" as="geometry">
            <mxRectangle width="25" height="25" as="alternateBounds" />
          </mxGeometry>
        </mxCell>
        <mxCell id="ht5rBl-SjjFZBpGq4qYo-55" value="" style="shape=partialRectangle;html=1;whiteSpace=wrap;connectable=0;strokeColor=inherit;overflow=hidden;fillColor=none;top=0;left=0;bottom=0;right=0;pointerEvents=1;" parent="ht5rBl-SjjFZBpGq4qYo-53" vertex="1">
          <mxGeometry x="25" width="25" height="25" as="geometry">
            <mxRectangle width="25" height="25" as="alternateBounds" />
          </mxGeometry>
        </mxCell>
        <mxCell id="ht5rBl-SjjFZBpGq4qYo-56" value="" style="shape=partialRectangle;html=1;whiteSpace=wrap;connectable=0;strokeColor=inherit;overflow=hidden;fillColor=none;top=0;left=0;bottom=0;right=0;pointerEvents=1;" parent="ht5rBl-SjjFZBpGq4qYo-53" vertex="1">
          <mxGeometry x="50" width="25" height="25" as="geometry">
            <mxRectangle width="25" height="25" as="alternateBounds" />
          </mxGeometry>
        </mxCell>
        <mxCell id="ht5rBl-SjjFZBpGq4qYo-57" value="" style="shape=partialRectangle;html=1;whiteSpace=wrap;connectable=0;strokeColor=inherit;overflow=hidden;fillColor=none;top=0;left=0;bottom=0;right=0;pointerEvents=1;" parent="ht5rBl-SjjFZBpGq4qYo-53" vertex="1">
          <mxGeometry x="75" width="25" height="25" as="geometry">
            <mxRectangle width="25" height="25" as="alternateBounds" />
          </mxGeometry>
        </mxCell>
        <mxCell id="ht5rBl-SjjFZBpGq4qYo-58" value="" style="shape=partialRectangle;html=1;whiteSpace=wrap;connectable=0;strokeColor=inherit;overflow=hidden;fillColor=none;top=0;left=0;bottom=0;right=0;pointerEvents=1;" parent="ht5rBl-SjjFZBpGq4qYo-53" vertex="1">
          <mxGeometry x="100" width="25" height="25" as="geometry">
            <mxRectangle width="25" height="25" as="alternateBounds" />
          </mxGeometry>
        </mxCell>
        <mxCell id="ht5rBl-SjjFZBpGq4qYo-59" value="" style="shape=partialRectangle;html=1;whiteSpace=wrap;connectable=0;strokeColor=inherit;overflow=hidden;fillColor=none;top=0;left=0;bottom=0;right=0;pointerEvents=1;" parent="ht5rBl-SjjFZBpGq4qYo-53" vertex="1">
          <mxGeometry x="125" width="25" height="25" as="geometry">
            <mxRectangle width="25" height="25" as="alternateBounds" />
          </mxGeometry>
        </mxCell>
        <mxCell id="ht5rBl-SjjFZBpGq4qYo-60" value="" style="shape=partialRectangle;html=1;whiteSpace=wrap;connectable=0;strokeColor=inherit;overflow=hidden;fillColor=none;top=0;left=0;bottom=0;right=0;pointerEvents=1;" parent="ht5rBl-SjjFZBpGq4qYo-53" vertex="1">
          <mxGeometry x="150" width="25" height="25" as="geometry">
            <mxRectangle width="25" height="25" as="alternateBounds" />
          </mxGeometry>
        </mxCell>
        <mxCell id="ht5rBl-SjjFZBpGq4qYo-61" value="" style="shape=partialRectangle;html=1;whiteSpace=wrap;connectable=0;strokeColor=inherit;overflow=hidden;fillColor=none;top=0;left=0;bottom=0;right=0;pointerEvents=1;" parent="ht5rBl-SjjFZBpGq4qYo-53" vertex="1">
          <mxGeometry x="175" width="25" height="25" as="geometry">
            <mxRectangle width="25" height="25" as="alternateBounds" />
          </mxGeometry>
        </mxCell>
        <mxCell id="ht5rBl-SjjFZBpGq4qYo-62" value="" style="shape=partialRectangle;html=1;whiteSpace=wrap;connectable=0;strokeColor=inherit;overflow=hidden;fillColor=none;top=0;left=0;bottom=0;right=0;pointerEvents=1;" parent="ht5rBl-SjjFZBpGq4qYo-53" vertex="1">
          <mxGeometry x="200" width="25" height="25" as="geometry">
            <mxRectangle width="25" height="25" as="alternateBounds" />
          </mxGeometry>
        </mxCell>
        <mxCell id="ht5rBl-SjjFZBpGq4qYo-63" value="" style="shape=partialRectangle;html=1;whiteSpace=wrap;connectable=0;strokeColor=inherit;overflow=hidden;fillColor=none;top=0;left=0;bottom=0;right=0;pointerEvents=1;" parent="ht5rBl-SjjFZBpGq4qYo-53" vertex="1">
          <mxGeometry x="225" width="25" height="25" as="geometry">
            <mxRectangle width="25" height="25" as="alternateBounds" />
          </mxGeometry>
        </mxCell>
        <mxCell id="ht5rBl-SjjFZBpGq4qYo-64" value="" style="shape=partialRectangle;html=1;whiteSpace=wrap;connectable=0;strokeColor=inherit;overflow=hidden;fillColor=none;top=0;left=0;bottom=0;right=0;pointerEvents=1;" parent="ht5rBl-SjjFZBpGq4qYo-53" vertex="1">
          <mxGeometry x="250" width="25" height="25" as="geometry">
            <mxRectangle width="25" height="25" as="alternateBounds" />
          </mxGeometry>
        </mxCell>
        <mxCell id="ht5rBl-SjjFZBpGq4qYo-65" value="" style="shape=partialRectangle;html=1;whiteSpace=wrap;connectable=0;strokeColor=inherit;overflow=hidden;fillColor=none;top=0;left=0;bottom=0;right=0;pointerEvents=1;" parent="ht5rBl-SjjFZBpGq4qYo-53" vertex="1">
          <mxGeometry x="275" width="25" height="25" as="geometry">
            <mxRectangle width="25" height="25" as="alternateBounds" />
          </mxGeometry>
        </mxCell>
        <mxCell id="ht5rBl-SjjFZBpGq4qYo-66" value="" style="shape=partialRectangle;html=1;whiteSpace=wrap;connectable=0;strokeColor=inherit;overflow=hidden;fillColor=none;top=0;left=0;bottom=0;right=0;pointerEvents=1;" parent="ht5rBl-SjjFZBpGq4qYo-53" vertex="1">
          <mxGeometry x="300" width="25" height="25" as="geometry">
            <mxRectangle width="25" height="25" as="alternateBounds" />
          </mxGeometry>
        </mxCell>
        <mxCell id="ht5rBl-SjjFZBpGq4qYo-67" value="" style="shape=partialRectangle;html=1;whiteSpace=wrap;connectable=0;strokeColor=inherit;overflow=hidden;fillColor=none;top=0;left=0;bottom=0;right=0;pointerEvents=1;" parent="ht5rBl-SjjFZBpGq4qYo-53" vertex="1">
          <mxGeometry x="325" width="25" height="25" as="geometry">
            <mxRectangle width="25" height="25" as="alternateBounds" />
          </mxGeometry>
        </mxCell>
        <mxCell id="ht5rBl-SjjFZBpGq4qYo-68" value="" style="shape=partialRectangle;html=1;whiteSpace=wrap;connectable=0;strokeColor=inherit;overflow=hidden;fillColor=none;top=0;left=0;bottom=0;right=0;pointerEvents=1;" parent="ht5rBl-SjjFZBpGq4qYo-53" vertex="1">
          <mxGeometry x="350" width="25" height="25" as="geometry">
            <mxRectangle width="25" height="25" as="alternateBounds" />
          </mxGeometry>
        </mxCell>
        <mxCell id="ht5rBl-SjjFZBpGq4qYo-69" value="" style="shape=partialRectangle;html=1;whiteSpace=wrap;connectable=0;strokeColor=inherit;overflow=hidden;fillColor=none;top=0;left=0;bottom=0;right=0;pointerEvents=1;" parent="ht5rBl-SjjFZBpGq4qYo-53" vertex="1">
          <mxGeometry x="375" width="25" height="25" as="geometry">
            <mxRectangle width="25" height="25" as="alternateBounds" />
          </mxGeometry>
        </mxCell>
        <mxCell id="ht5rBl-SjjFZBpGq4qYo-70" value="" style="shape=tableRow;horizontal=0;startSize=0;swimlaneHead=0;swimlaneBody=0;strokeColor=inherit;top=0;left=0;bottom=0;right=0;collapsible=0;dropTarget=0;fillColor=none;points=[[0,0.5],[1,0.5]];portConstraint=eastwest;" parent="ht5rBl-SjjFZBpGq4qYo-1" vertex="1">
          <mxGeometry y="100" width="400" height="25" as="geometry" />
        </mxCell>
        <mxCell id="ht5rBl-SjjFZBpGq4qYo-71" value="" style="shape=partialRectangle;html=1;whiteSpace=wrap;connectable=0;strokeColor=inherit;overflow=hidden;fillColor=none;top=0;left=0;bottom=0;right=0;pointerEvents=1;" parent="ht5rBl-SjjFZBpGq4qYo-70" vertex="1">
          <mxGeometry width="25" height="25" as="geometry">
            <mxRectangle width="25" height="25" as="alternateBounds" />
          </mxGeometry>
        </mxCell>
        <mxCell id="ht5rBl-SjjFZBpGq4qYo-72" value="" style="shape=partialRectangle;html=1;whiteSpace=wrap;connectable=0;strokeColor=inherit;overflow=hidden;fillColor=none;top=0;left=0;bottom=0;right=0;pointerEvents=1;" parent="ht5rBl-SjjFZBpGq4qYo-70" vertex="1">
          <mxGeometry x="25" width="25" height="25" as="geometry">
            <mxRectangle width="25" height="25" as="alternateBounds" />
          </mxGeometry>
        </mxCell>
        <mxCell id="ht5rBl-SjjFZBpGq4qYo-73" value="" style="shape=partialRectangle;html=1;whiteSpace=wrap;connectable=0;strokeColor=inherit;overflow=hidden;fillColor=none;top=0;left=0;bottom=0;right=0;pointerEvents=1;" parent="ht5rBl-SjjFZBpGq4qYo-70" vertex="1">
          <mxGeometry x="50" width="25" height="25" as="geometry">
            <mxRectangle width="25" height="25" as="alternateBounds" />
          </mxGeometry>
        </mxCell>
        <mxCell id="ht5rBl-SjjFZBpGq4qYo-74" value="" style="shape=partialRectangle;html=1;whiteSpace=wrap;connectable=0;strokeColor=inherit;overflow=hidden;fillColor=none;top=0;left=0;bottom=0;right=0;pointerEvents=1;" parent="ht5rBl-SjjFZBpGq4qYo-70" vertex="1">
          <mxGeometry x="75" width="25" height="25" as="geometry">
            <mxRectangle width="25" height="25" as="alternateBounds" />
          </mxGeometry>
        </mxCell>
        <mxCell id="ht5rBl-SjjFZBpGq4qYo-75" value="&lt;font color=&quot;#ff0000&quot;&gt;1&lt;/font&gt;" style="shape=partialRectangle;html=1;whiteSpace=wrap;connectable=0;strokeColor=inherit;overflow=hidden;fillColor=none;top=0;left=0;bottom=0;right=0;pointerEvents=1;" parent="ht5rBl-SjjFZBpGq4qYo-70" vertex="1">
          <mxGeometry x="100" width="25" height="25" as="geometry">
            <mxRectangle width="25" height="25" as="alternateBounds" />
          </mxGeometry>
        </mxCell>
        <mxCell id="ht5rBl-SjjFZBpGq4qYo-76" value="" style="shape=partialRectangle;html=1;whiteSpace=wrap;connectable=0;strokeColor=inherit;overflow=hidden;fillColor=none;top=0;left=0;bottom=0;right=0;pointerEvents=1;" parent="ht5rBl-SjjFZBpGq4qYo-70" vertex="1">
          <mxGeometry x="125" width="25" height="25" as="geometry">
            <mxRectangle width="25" height="25" as="alternateBounds" />
          </mxGeometry>
        </mxCell>
        <mxCell id="ht5rBl-SjjFZBpGq4qYo-77" value="" style="shape=partialRectangle;html=1;whiteSpace=wrap;connectable=0;strokeColor=inherit;overflow=hidden;fillColor=none;top=0;left=0;bottom=0;right=0;pointerEvents=1;" parent="ht5rBl-SjjFZBpGq4qYo-70" vertex="1">
          <mxGeometry x="150" width="25" height="25" as="geometry">
            <mxRectangle width="25" height="25" as="alternateBounds" />
          </mxGeometry>
        </mxCell>
        <mxCell id="ht5rBl-SjjFZBpGq4qYo-78" value="" style="shape=partialRectangle;html=1;whiteSpace=wrap;connectable=0;strokeColor=inherit;overflow=hidden;fillColor=none;top=0;left=0;bottom=0;right=0;pointerEvents=1;" parent="ht5rBl-SjjFZBpGq4qYo-70" vertex="1">
          <mxGeometry x="175" width="25" height="25" as="geometry">
            <mxRectangle width="25" height="25" as="alternateBounds" />
          </mxGeometry>
        </mxCell>
        <mxCell id="ht5rBl-SjjFZBpGq4qYo-79" value="" style="shape=partialRectangle;html=1;whiteSpace=wrap;connectable=0;strokeColor=inherit;overflow=hidden;fillColor=none;top=0;left=0;bottom=0;right=0;pointerEvents=1;" parent="ht5rBl-SjjFZBpGq4qYo-70" vertex="1">
          <mxGeometry x="200" width="25" height="25" as="geometry">
            <mxRectangle width="25" height="25" as="alternateBounds" />
          </mxGeometry>
        </mxCell>
        <mxCell id="ht5rBl-SjjFZBpGq4qYo-80" value="" style="shape=partialRectangle;html=1;whiteSpace=wrap;connectable=0;strokeColor=inherit;overflow=hidden;fillColor=none;top=0;left=0;bottom=0;right=0;pointerEvents=1;" parent="ht5rBl-SjjFZBpGq4qYo-70" vertex="1">
          <mxGeometry x="225" width="25" height="25" as="geometry">
            <mxRectangle width="25" height="25" as="alternateBounds" />
          </mxGeometry>
        </mxCell>
        <mxCell id="ht5rBl-SjjFZBpGq4qYo-81" value="" style="shape=partialRectangle;html=1;whiteSpace=wrap;connectable=0;strokeColor=inherit;overflow=hidden;fillColor=none;top=0;left=0;bottom=0;right=0;pointerEvents=1;" parent="ht5rBl-SjjFZBpGq4qYo-70" vertex="1">
          <mxGeometry x="250" width="25" height="25" as="geometry">
            <mxRectangle width="25" height="25" as="alternateBounds" />
          </mxGeometry>
        </mxCell>
        <mxCell id="ht5rBl-SjjFZBpGq4qYo-82" value="" style="shape=partialRectangle;html=1;whiteSpace=wrap;connectable=0;strokeColor=inherit;overflow=hidden;fillColor=none;top=0;left=0;bottom=0;right=0;pointerEvents=1;" parent="ht5rBl-SjjFZBpGq4qYo-70" vertex="1">
          <mxGeometry x="275" width="25" height="25" as="geometry">
            <mxRectangle width="25" height="25" as="alternateBounds" />
          </mxGeometry>
        </mxCell>
        <mxCell id="ht5rBl-SjjFZBpGq4qYo-83" value="&lt;font color=&quot;#ff0000&quot;&gt;1&lt;/font&gt;" style="shape=partialRectangle;html=1;whiteSpace=wrap;connectable=0;strokeColor=inherit;overflow=hidden;fillColor=none;top=0;left=0;bottom=0;right=0;pointerEvents=1;" parent="ht5rBl-SjjFZBpGq4qYo-70" vertex="1">
          <mxGeometry x="300" width="25" height="25" as="geometry">
            <mxRectangle width="25" height="25" as="alternateBounds" />
          </mxGeometry>
        </mxCell>
        <mxCell id="ht5rBl-SjjFZBpGq4qYo-84" value="" style="shape=partialRectangle;html=1;whiteSpace=wrap;connectable=0;strokeColor=inherit;overflow=hidden;fillColor=none;top=0;left=0;bottom=0;right=0;pointerEvents=1;" parent="ht5rBl-SjjFZBpGq4qYo-70" vertex="1">
          <mxGeometry x="325" width="25" height="25" as="geometry">
            <mxRectangle width="25" height="25" as="alternateBounds" />
          </mxGeometry>
        </mxCell>
        <mxCell id="ht5rBl-SjjFZBpGq4qYo-85" value="" style="shape=partialRectangle;html=1;whiteSpace=wrap;connectable=0;strokeColor=inherit;overflow=hidden;fillColor=none;top=0;left=0;bottom=0;right=0;pointerEvents=1;" parent="ht5rBl-SjjFZBpGq4qYo-70" vertex="1">
          <mxGeometry x="350" width="25" height="25" as="geometry">
            <mxRectangle width="25" height="25" as="alternateBounds" />
          </mxGeometry>
        </mxCell>
        <mxCell id="ht5rBl-SjjFZBpGq4qYo-86" value="" style="shape=partialRectangle;html=1;whiteSpace=wrap;connectable=0;strokeColor=inherit;overflow=hidden;fillColor=none;top=0;left=0;bottom=0;right=0;pointerEvents=1;" parent="ht5rBl-SjjFZBpGq4qYo-70" vertex="1">
          <mxGeometry x="375" width="25" height="25" as="geometry">
            <mxRectangle width="25" height="25" as="alternateBounds" />
          </mxGeometry>
        </mxCell>
        <mxCell id="ht5rBl-SjjFZBpGq4qYo-87" value="" style="shape=tableRow;horizontal=0;startSize=0;swimlaneHead=0;swimlaneBody=0;strokeColor=inherit;top=0;left=0;bottom=0;right=0;collapsible=0;dropTarget=0;fillColor=none;points=[[0,0.5],[1,0.5]];portConstraint=eastwest;" parent="ht5rBl-SjjFZBpGq4qYo-1" vertex="1">
          <mxGeometry y="125" width="400" height="25" as="geometry" />
        </mxCell>
        <mxCell id="ht5rBl-SjjFZBpGq4qYo-88" value="" style="shape=partialRectangle;html=1;whiteSpace=wrap;connectable=0;strokeColor=inherit;overflow=hidden;fillColor=none;top=0;left=0;bottom=0;right=0;pointerEvents=1;" parent="ht5rBl-SjjFZBpGq4qYo-87" vertex="1">
          <mxGeometry width="25" height="25" as="geometry">
            <mxRectangle width="25" height="25" as="alternateBounds" />
          </mxGeometry>
        </mxCell>
        <mxCell id="ht5rBl-SjjFZBpGq4qYo-89" value="" style="shape=partialRectangle;html=1;whiteSpace=wrap;connectable=0;strokeColor=inherit;overflow=hidden;fillColor=none;top=0;left=0;bottom=0;right=0;pointerEvents=1;" parent="ht5rBl-SjjFZBpGq4qYo-87" vertex="1">
          <mxGeometry x="25" width="25" height="25" as="geometry">
            <mxRectangle width="25" height="25" as="alternateBounds" />
          </mxGeometry>
        </mxCell>
        <mxCell id="ht5rBl-SjjFZBpGq4qYo-90" value="" style="shape=partialRectangle;html=1;whiteSpace=wrap;connectable=0;strokeColor=inherit;overflow=hidden;fillColor=none;top=0;left=0;bottom=0;right=0;pointerEvents=1;" parent="ht5rBl-SjjFZBpGq4qYo-87" vertex="1">
          <mxGeometry x="50" width="25" height="25" as="geometry">
            <mxRectangle width="25" height="25" as="alternateBounds" />
          </mxGeometry>
        </mxCell>
        <mxCell id="ht5rBl-SjjFZBpGq4qYo-91" value="" style="shape=partialRectangle;html=1;whiteSpace=wrap;connectable=0;strokeColor=inherit;overflow=hidden;fillColor=none;top=0;left=0;bottom=0;right=0;pointerEvents=1;" parent="ht5rBl-SjjFZBpGq4qYo-87" vertex="1">
          <mxGeometry x="75" width="25" height="25" as="geometry">
            <mxRectangle width="25" height="25" as="alternateBounds" />
          </mxGeometry>
        </mxCell>
        <mxCell id="ht5rBl-SjjFZBpGq4qYo-92" value="" style="shape=partialRectangle;html=1;whiteSpace=wrap;connectable=0;strokeColor=inherit;overflow=hidden;fillColor=none;top=0;left=0;bottom=0;right=0;pointerEvents=1;" parent="ht5rBl-SjjFZBpGq4qYo-87" vertex="1">
          <mxGeometry x="100" width="25" height="25" as="geometry">
            <mxRectangle width="25" height="25" as="alternateBounds" />
          </mxGeometry>
        </mxCell>
        <mxCell id="ht5rBl-SjjFZBpGq4qYo-93" value="" style="shape=partialRectangle;html=1;whiteSpace=wrap;connectable=0;strokeColor=inherit;overflow=hidden;fillColor=none;top=0;left=0;bottom=0;right=0;pointerEvents=1;" parent="ht5rBl-SjjFZBpGq4qYo-87" vertex="1">
          <mxGeometry x="125" width="25" height="25" as="geometry">
            <mxRectangle width="25" height="25" as="alternateBounds" />
          </mxGeometry>
        </mxCell>
        <mxCell id="ht5rBl-SjjFZBpGq4qYo-94" value="" style="shape=partialRectangle;html=1;whiteSpace=wrap;connectable=0;strokeColor=inherit;overflow=hidden;fillColor=none;top=0;left=0;bottom=0;right=0;pointerEvents=1;" parent="ht5rBl-SjjFZBpGq4qYo-87" vertex="1">
          <mxGeometry x="150" width="25" height="25" as="geometry">
            <mxRectangle width="25" height="25" as="alternateBounds" />
          </mxGeometry>
        </mxCell>
        <mxCell id="ht5rBl-SjjFZBpGq4qYo-95" value="" style="shape=partialRectangle;html=1;whiteSpace=wrap;connectable=0;strokeColor=inherit;overflow=hidden;fillColor=none;top=0;left=0;bottom=0;right=0;pointerEvents=1;" parent="ht5rBl-SjjFZBpGq4qYo-87" vertex="1">
          <mxGeometry x="175" width="25" height="25" as="geometry">
            <mxRectangle width="25" height="25" as="alternateBounds" />
          </mxGeometry>
        </mxCell>
        <mxCell id="ht5rBl-SjjFZBpGq4qYo-96" value="" style="shape=partialRectangle;html=1;whiteSpace=wrap;connectable=0;strokeColor=inherit;overflow=hidden;fillColor=none;top=0;left=0;bottom=0;right=0;pointerEvents=1;" parent="ht5rBl-SjjFZBpGq4qYo-87" vertex="1">
          <mxGeometry x="200" width="25" height="25" as="geometry">
            <mxRectangle width="25" height="25" as="alternateBounds" />
          </mxGeometry>
        </mxCell>
        <mxCell id="ht5rBl-SjjFZBpGq4qYo-97" value="" style="shape=partialRectangle;html=1;whiteSpace=wrap;connectable=0;strokeColor=inherit;overflow=hidden;fillColor=none;top=0;left=0;bottom=0;right=0;pointerEvents=1;" parent="ht5rBl-SjjFZBpGq4qYo-87" vertex="1">
          <mxGeometry x="225" width="25" height="25" as="geometry">
            <mxRectangle width="25" height="25" as="alternateBounds" />
          </mxGeometry>
        </mxCell>
        <mxCell id="ht5rBl-SjjFZBpGq4qYo-98" value="" style="shape=partialRectangle;html=1;whiteSpace=wrap;connectable=0;strokeColor=inherit;overflow=hidden;fillColor=none;top=0;left=0;bottom=0;right=0;pointerEvents=1;" parent="ht5rBl-SjjFZBpGq4qYo-87" vertex="1">
          <mxGeometry x="250" width="25" height="25" as="geometry">
            <mxRectangle width="25" height="25" as="alternateBounds" />
          </mxGeometry>
        </mxCell>
        <mxCell id="ht5rBl-SjjFZBpGq4qYo-99" value="" style="shape=partialRectangle;html=1;whiteSpace=wrap;connectable=0;strokeColor=inherit;overflow=hidden;fillColor=none;top=0;left=0;bottom=0;right=0;pointerEvents=1;" parent="ht5rBl-SjjFZBpGq4qYo-87" vertex="1">
          <mxGeometry x="275" width="25" height="25" as="geometry">
            <mxRectangle width="25" height="25" as="alternateBounds" />
          </mxGeometry>
        </mxCell>
        <mxCell id="ht5rBl-SjjFZBpGq4qYo-100" value="" style="shape=partialRectangle;html=1;whiteSpace=wrap;connectable=0;strokeColor=inherit;overflow=hidden;fillColor=none;top=0;left=0;bottom=0;right=0;pointerEvents=1;" parent="ht5rBl-SjjFZBpGq4qYo-87" vertex="1">
          <mxGeometry x="300" width="25" height="25" as="geometry">
            <mxRectangle width="25" height="25" as="alternateBounds" />
          </mxGeometry>
        </mxCell>
        <mxCell id="ht5rBl-SjjFZBpGq4qYo-101" value="" style="shape=partialRectangle;html=1;whiteSpace=wrap;connectable=0;strokeColor=inherit;overflow=hidden;fillColor=none;top=0;left=0;bottom=0;right=0;pointerEvents=1;" parent="ht5rBl-SjjFZBpGq4qYo-87" vertex="1">
          <mxGeometry x="325" width="25" height="25" as="geometry">
            <mxRectangle width="25" height="25" as="alternateBounds" />
          </mxGeometry>
        </mxCell>
        <mxCell id="ht5rBl-SjjFZBpGq4qYo-102" value="" style="shape=partialRectangle;html=1;whiteSpace=wrap;connectable=0;strokeColor=inherit;overflow=hidden;fillColor=none;top=0;left=0;bottom=0;right=0;pointerEvents=1;" parent="ht5rBl-SjjFZBpGq4qYo-87" vertex="1">
          <mxGeometry x="350" width="25" height="25" as="geometry">
            <mxRectangle width="25" height="25" as="alternateBounds" />
          </mxGeometry>
        </mxCell>
        <mxCell id="ht5rBl-SjjFZBpGq4qYo-103" value="" style="shape=partialRectangle;html=1;whiteSpace=wrap;connectable=0;strokeColor=inherit;overflow=hidden;fillColor=none;top=0;left=0;bottom=0;right=0;pointerEvents=1;" parent="ht5rBl-SjjFZBpGq4qYo-87" vertex="1">
          <mxGeometry x="375" width="25" height="25" as="geometry">
            <mxRectangle width="25" height="25" as="alternateBounds" />
          </mxGeometry>
        </mxCell>
        <mxCell id="ht5rBl-SjjFZBpGq4qYo-104" value="" style="shape=tableRow;horizontal=0;startSize=0;swimlaneHead=0;swimlaneBody=0;strokeColor=inherit;top=0;left=0;bottom=0;right=0;collapsible=0;dropTarget=0;fillColor=none;points=[[0,0.5],[1,0.5]];portConstraint=eastwest;" parent="ht5rBl-SjjFZBpGq4qYo-1" vertex="1">
          <mxGeometry y="150" width="400" height="20" as="geometry" />
        </mxCell>
        <mxCell id="ht5rBl-SjjFZBpGq4qYo-105" value="" style="shape=partialRectangle;html=1;whiteSpace=wrap;connectable=0;strokeColor=inherit;overflow=hidden;fillColor=none;top=0;left=0;bottom=0;right=0;pointerEvents=1;" parent="ht5rBl-SjjFZBpGq4qYo-104" vertex="1">
          <mxGeometry width="25" height="20" as="geometry">
            <mxRectangle width="25" height="20" as="alternateBounds" />
          </mxGeometry>
        </mxCell>
        <mxCell id="ht5rBl-SjjFZBpGq4qYo-106" value="" style="shape=partialRectangle;html=1;whiteSpace=wrap;connectable=0;strokeColor=inherit;overflow=hidden;fillColor=none;top=0;left=0;bottom=0;right=0;pointerEvents=1;" parent="ht5rBl-SjjFZBpGq4qYo-104" vertex="1">
          <mxGeometry x="25" width="25" height="20" as="geometry">
            <mxRectangle width="25" height="20" as="alternateBounds" />
          </mxGeometry>
        </mxCell>
        <mxCell id="ht5rBl-SjjFZBpGq4qYo-107" value="" style="shape=partialRectangle;html=1;whiteSpace=wrap;connectable=0;strokeColor=inherit;overflow=hidden;fillColor=none;top=0;left=0;bottom=0;right=0;pointerEvents=1;" parent="ht5rBl-SjjFZBpGq4qYo-104" vertex="1">
          <mxGeometry x="50" width="25" height="20" as="geometry">
            <mxRectangle width="25" height="20" as="alternateBounds" />
          </mxGeometry>
        </mxCell>
        <mxCell id="ht5rBl-SjjFZBpGq4qYo-108" value="" style="shape=partialRectangle;html=1;whiteSpace=wrap;connectable=0;strokeColor=inherit;overflow=hidden;fillColor=none;top=0;left=0;bottom=0;right=0;pointerEvents=1;" parent="ht5rBl-SjjFZBpGq4qYo-104" vertex="1">
          <mxGeometry x="75" width="25" height="20" as="geometry">
            <mxRectangle width="25" height="20" as="alternateBounds" />
          </mxGeometry>
        </mxCell>
        <mxCell id="ht5rBl-SjjFZBpGq4qYo-109" value="" style="shape=partialRectangle;html=1;whiteSpace=wrap;connectable=0;strokeColor=inherit;overflow=hidden;fillColor=none;top=0;left=0;bottom=0;right=0;pointerEvents=1;" parent="ht5rBl-SjjFZBpGq4qYo-104" vertex="1">
          <mxGeometry x="100" width="25" height="20" as="geometry">
            <mxRectangle width="25" height="20" as="alternateBounds" />
          </mxGeometry>
        </mxCell>
        <mxCell id="ht5rBl-SjjFZBpGq4qYo-110" value="" style="shape=partialRectangle;html=1;whiteSpace=wrap;connectable=0;strokeColor=inherit;overflow=hidden;fillColor=none;top=0;left=0;bottom=0;right=0;pointerEvents=1;" parent="ht5rBl-SjjFZBpGq4qYo-104" vertex="1">
          <mxGeometry x="125" width="25" height="20" as="geometry">
            <mxRectangle width="25" height="20" as="alternateBounds" />
          </mxGeometry>
        </mxCell>
        <mxCell id="ht5rBl-SjjFZBpGq4qYo-111" value="" style="shape=partialRectangle;html=1;whiteSpace=wrap;connectable=0;strokeColor=inherit;overflow=hidden;fillColor=none;top=0;left=0;bottom=0;right=0;pointerEvents=1;" parent="ht5rBl-SjjFZBpGq4qYo-104" vertex="1">
          <mxGeometry x="150" width="25" height="20" as="geometry">
            <mxRectangle width="25" height="20" as="alternateBounds" />
          </mxGeometry>
        </mxCell>
        <mxCell id="ht5rBl-SjjFZBpGq4qYo-112" value="&lt;font color=&quot;#ff0000&quot;&gt;1&lt;/font&gt;" style="shape=partialRectangle;html=1;whiteSpace=wrap;connectable=0;strokeColor=inherit;overflow=hidden;fillColor=none;top=0;left=0;bottom=0;right=0;pointerEvents=1;" parent="ht5rBl-SjjFZBpGq4qYo-104" vertex="1">
          <mxGeometry x="175" width="25" height="20" as="geometry">
            <mxRectangle width="25" height="20" as="alternateBounds" />
          </mxGeometry>
        </mxCell>
        <mxCell id="ht5rBl-SjjFZBpGq4qYo-113" value="" style="shape=partialRectangle;html=1;whiteSpace=wrap;connectable=0;strokeColor=inherit;overflow=hidden;fillColor=none;top=0;left=0;bottom=0;right=0;pointerEvents=1;" parent="ht5rBl-SjjFZBpGq4qYo-104" vertex="1">
          <mxGeometry x="200" width="25" height="20" as="geometry">
            <mxRectangle width="25" height="20" as="alternateBounds" />
          </mxGeometry>
        </mxCell>
        <mxCell id="ht5rBl-SjjFZBpGq4qYo-114" value="" style="shape=partialRectangle;html=1;whiteSpace=wrap;connectable=0;strokeColor=inherit;overflow=hidden;fillColor=none;top=0;left=0;bottom=0;right=0;pointerEvents=1;" parent="ht5rBl-SjjFZBpGq4qYo-104" vertex="1">
          <mxGeometry x="225" width="25" height="20" as="geometry">
            <mxRectangle width="25" height="20" as="alternateBounds" />
          </mxGeometry>
        </mxCell>
        <mxCell id="ht5rBl-SjjFZBpGq4qYo-115" value="" style="shape=partialRectangle;html=1;whiteSpace=wrap;connectable=0;strokeColor=inherit;overflow=hidden;fillColor=none;top=0;left=0;bottom=0;right=0;pointerEvents=1;" parent="ht5rBl-SjjFZBpGq4qYo-104" vertex="1">
          <mxGeometry x="250" width="25" height="20" as="geometry">
            <mxRectangle width="25" height="20" as="alternateBounds" />
          </mxGeometry>
        </mxCell>
        <mxCell id="ht5rBl-SjjFZBpGq4qYo-116" value="" style="shape=partialRectangle;html=1;whiteSpace=wrap;connectable=0;strokeColor=inherit;overflow=hidden;fillColor=none;top=0;left=0;bottom=0;right=0;pointerEvents=1;" parent="ht5rBl-SjjFZBpGq4qYo-104" vertex="1">
          <mxGeometry x="275" width="25" height="20" as="geometry">
            <mxRectangle width="25" height="20" as="alternateBounds" />
          </mxGeometry>
        </mxCell>
        <mxCell id="ht5rBl-SjjFZBpGq4qYo-117" value="" style="shape=partialRectangle;html=1;whiteSpace=wrap;connectable=0;strokeColor=inherit;overflow=hidden;fillColor=none;top=0;left=0;bottom=0;right=0;pointerEvents=1;" parent="ht5rBl-SjjFZBpGq4qYo-104" vertex="1">
          <mxGeometry x="300" width="25" height="20" as="geometry">
            <mxRectangle width="25" height="20" as="alternateBounds" />
          </mxGeometry>
        </mxCell>
        <mxCell id="ht5rBl-SjjFZBpGq4qYo-118" value="" style="shape=partialRectangle;html=1;whiteSpace=wrap;connectable=0;strokeColor=inherit;overflow=hidden;fillColor=none;top=0;left=0;bottom=0;right=0;pointerEvents=1;" parent="ht5rBl-SjjFZBpGq4qYo-104" vertex="1">
          <mxGeometry x="325" width="25" height="20" as="geometry">
            <mxRectangle width="25" height="20" as="alternateBounds" />
          </mxGeometry>
        </mxCell>
        <mxCell id="ht5rBl-SjjFZBpGq4qYo-119" value="" style="shape=partialRectangle;html=1;whiteSpace=wrap;connectable=0;strokeColor=inherit;overflow=hidden;fillColor=none;top=0;left=0;bottom=0;right=0;pointerEvents=1;" parent="ht5rBl-SjjFZBpGq4qYo-104" vertex="1">
          <mxGeometry x="350" width="25" height="20" as="geometry">
            <mxRectangle width="25" height="20" as="alternateBounds" />
          </mxGeometry>
        </mxCell>
        <mxCell id="ht5rBl-SjjFZBpGq4qYo-120" value="" style="shape=partialRectangle;html=1;whiteSpace=wrap;connectable=0;strokeColor=inherit;overflow=hidden;fillColor=none;top=0;left=0;bottom=0;right=0;pointerEvents=1;" parent="ht5rBl-SjjFZBpGq4qYo-104" vertex="1">
          <mxGeometry x="375" width="25" height="20" as="geometry">
            <mxRectangle width="25" height="20" as="alternateBounds" />
          </mxGeometry>
        </mxCell>
        <mxCell id="ht5rBl-SjjFZBpGq4qYo-121" value="" style="shape=tableRow;horizontal=0;startSize=0;swimlaneHead=0;swimlaneBody=0;strokeColor=inherit;top=0;left=0;bottom=0;right=0;collapsible=0;dropTarget=0;fillColor=none;points=[[0,0.5],[1,0.5]];portConstraint=eastwest;" parent="ht5rBl-SjjFZBpGq4qYo-1" vertex="1">
          <mxGeometry y="170" width="400" height="25" as="geometry" />
        </mxCell>
        <mxCell id="ht5rBl-SjjFZBpGq4qYo-122" value="" style="shape=partialRectangle;html=1;whiteSpace=wrap;connectable=0;strokeColor=inherit;overflow=hidden;fillColor=none;top=0;left=0;bottom=0;right=0;pointerEvents=1;" parent="ht5rBl-SjjFZBpGq4qYo-121" vertex="1">
          <mxGeometry width="25" height="25" as="geometry">
            <mxRectangle width="25" height="25" as="alternateBounds" />
          </mxGeometry>
        </mxCell>
        <mxCell id="ht5rBl-SjjFZBpGq4qYo-123" value="" style="shape=partialRectangle;html=1;whiteSpace=wrap;connectable=0;strokeColor=inherit;overflow=hidden;fillColor=none;top=0;left=0;bottom=0;right=0;pointerEvents=1;" parent="ht5rBl-SjjFZBpGq4qYo-121" vertex="1">
          <mxGeometry x="25" width="25" height="25" as="geometry">
            <mxRectangle width="25" height="25" as="alternateBounds" />
          </mxGeometry>
        </mxCell>
        <mxCell id="ht5rBl-SjjFZBpGq4qYo-124" value="" style="shape=partialRectangle;html=1;whiteSpace=wrap;connectable=0;strokeColor=inherit;overflow=hidden;fillColor=none;top=0;left=0;bottom=0;right=0;pointerEvents=1;" parent="ht5rBl-SjjFZBpGq4qYo-121" vertex="1">
          <mxGeometry x="50" width="25" height="25" as="geometry">
            <mxRectangle width="25" height="25" as="alternateBounds" />
          </mxGeometry>
        </mxCell>
        <mxCell id="ht5rBl-SjjFZBpGq4qYo-125" value="" style="shape=partialRectangle;html=1;whiteSpace=wrap;connectable=0;strokeColor=inherit;overflow=hidden;fillColor=none;top=0;left=0;bottom=0;right=0;pointerEvents=1;" parent="ht5rBl-SjjFZBpGq4qYo-121" vertex="1">
          <mxGeometry x="75" width="25" height="25" as="geometry">
            <mxRectangle width="25" height="25" as="alternateBounds" />
          </mxGeometry>
        </mxCell>
        <mxCell id="ht5rBl-SjjFZBpGq4qYo-126" value="" style="shape=partialRectangle;html=1;whiteSpace=wrap;connectable=0;strokeColor=inherit;overflow=hidden;fillColor=none;top=0;left=0;bottom=0;right=0;pointerEvents=1;" parent="ht5rBl-SjjFZBpGq4qYo-121" vertex="1">
          <mxGeometry x="100" width="25" height="25" as="geometry">
            <mxRectangle width="25" height="25" as="alternateBounds" />
          </mxGeometry>
        </mxCell>
        <mxCell id="ht5rBl-SjjFZBpGq4qYo-127" value="" style="shape=partialRectangle;html=1;whiteSpace=wrap;connectable=0;strokeColor=inherit;overflow=hidden;fillColor=none;top=0;left=0;bottom=0;right=0;pointerEvents=1;" parent="ht5rBl-SjjFZBpGq4qYo-121" vertex="1">
          <mxGeometry x="125" width="25" height="25" as="geometry">
            <mxRectangle width="25" height="25" as="alternateBounds" />
          </mxGeometry>
        </mxCell>
        <mxCell id="ht5rBl-SjjFZBpGq4qYo-128" value="" style="shape=partialRectangle;html=1;whiteSpace=wrap;connectable=0;strokeColor=inherit;overflow=hidden;fillColor=none;top=0;left=0;bottom=0;right=0;pointerEvents=1;" parent="ht5rBl-SjjFZBpGq4qYo-121" vertex="1">
          <mxGeometry x="150" width="25" height="25" as="geometry">
            <mxRectangle width="25" height="25" as="alternateBounds" />
          </mxGeometry>
        </mxCell>
        <mxCell id="ht5rBl-SjjFZBpGq4qYo-129" value="" style="shape=partialRectangle;html=1;whiteSpace=wrap;connectable=0;strokeColor=inherit;overflow=hidden;fillColor=none;top=0;left=0;bottom=0;right=0;pointerEvents=1;" parent="ht5rBl-SjjFZBpGq4qYo-121" vertex="1">
          <mxGeometry x="175" width="25" height="25" as="geometry">
            <mxRectangle width="25" height="25" as="alternateBounds" />
          </mxGeometry>
        </mxCell>
        <mxCell id="ht5rBl-SjjFZBpGq4qYo-130" value="" style="shape=partialRectangle;html=1;whiteSpace=wrap;connectable=0;strokeColor=inherit;overflow=hidden;fillColor=none;top=0;left=0;bottom=0;right=0;pointerEvents=1;" parent="ht5rBl-SjjFZBpGq4qYo-121" vertex="1">
          <mxGeometry x="200" width="25" height="25" as="geometry">
            <mxRectangle width="25" height="25" as="alternateBounds" />
          </mxGeometry>
        </mxCell>
        <mxCell id="ht5rBl-SjjFZBpGq4qYo-131" value="" style="shape=partialRectangle;html=1;whiteSpace=wrap;connectable=0;strokeColor=inherit;overflow=hidden;fillColor=none;top=0;left=0;bottom=0;right=0;pointerEvents=1;" parent="ht5rBl-SjjFZBpGq4qYo-121" vertex="1">
          <mxGeometry x="225" width="25" height="25" as="geometry">
            <mxRectangle width="25" height="25" as="alternateBounds" />
          </mxGeometry>
        </mxCell>
        <mxCell id="ht5rBl-SjjFZBpGq4qYo-132" value="" style="shape=partialRectangle;html=1;whiteSpace=wrap;connectable=0;strokeColor=inherit;overflow=hidden;fillColor=none;top=0;left=0;bottom=0;right=0;pointerEvents=1;" parent="ht5rBl-SjjFZBpGq4qYo-121" vertex="1">
          <mxGeometry x="250" width="25" height="25" as="geometry">
            <mxRectangle width="25" height="25" as="alternateBounds" />
          </mxGeometry>
        </mxCell>
        <mxCell id="ht5rBl-SjjFZBpGq4qYo-133" value="" style="shape=partialRectangle;html=1;whiteSpace=wrap;connectable=0;strokeColor=inherit;overflow=hidden;fillColor=none;top=0;left=0;bottom=0;right=0;pointerEvents=1;" parent="ht5rBl-SjjFZBpGq4qYo-121" vertex="1">
          <mxGeometry x="275" width="25" height="25" as="geometry">
            <mxRectangle width="25" height="25" as="alternateBounds" />
          </mxGeometry>
        </mxCell>
        <mxCell id="ht5rBl-SjjFZBpGq4qYo-134" value="" style="shape=partialRectangle;html=1;whiteSpace=wrap;connectable=0;strokeColor=inherit;overflow=hidden;fillColor=none;top=0;left=0;bottom=0;right=0;pointerEvents=1;" parent="ht5rBl-SjjFZBpGq4qYo-121" vertex="1">
          <mxGeometry x="300" width="25" height="25" as="geometry">
            <mxRectangle width="25" height="25" as="alternateBounds" />
          </mxGeometry>
        </mxCell>
        <mxCell id="ht5rBl-SjjFZBpGq4qYo-135" value="" style="shape=partialRectangle;html=1;whiteSpace=wrap;connectable=0;strokeColor=inherit;overflow=hidden;fillColor=none;top=0;left=0;bottom=0;right=0;pointerEvents=1;" parent="ht5rBl-SjjFZBpGq4qYo-121" vertex="1">
          <mxGeometry x="325" width="25" height="25" as="geometry">
            <mxRectangle width="25" height="25" as="alternateBounds" />
          </mxGeometry>
        </mxCell>
        <mxCell id="ht5rBl-SjjFZBpGq4qYo-136" value="" style="shape=partialRectangle;html=1;whiteSpace=wrap;connectable=0;strokeColor=inherit;overflow=hidden;fillColor=none;top=0;left=0;bottom=0;right=0;pointerEvents=1;" parent="ht5rBl-SjjFZBpGq4qYo-121" vertex="1">
          <mxGeometry x="350" width="25" height="25" as="geometry">
            <mxRectangle width="25" height="25" as="alternateBounds" />
          </mxGeometry>
        </mxCell>
        <mxCell id="ht5rBl-SjjFZBpGq4qYo-137" value="" style="shape=partialRectangle;html=1;whiteSpace=wrap;connectable=0;strokeColor=inherit;overflow=hidden;fillColor=none;top=0;left=0;bottom=0;right=0;pointerEvents=1;" parent="ht5rBl-SjjFZBpGq4qYo-121" vertex="1">
          <mxGeometry x="375" width="25" height="25" as="geometry">
            <mxRectangle width="25" height="25" as="alternateBounds" />
          </mxGeometry>
        </mxCell>
        <mxCell id="ht5rBl-SjjFZBpGq4qYo-138" value="" style="shape=tableRow;horizontal=0;startSize=0;swimlaneHead=0;swimlaneBody=0;strokeColor=inherit;top=0;left=0;bottom=0;right=0;collapsible=0;dropTarget=0;fillColor=none;points=[[0,0.5],[1,0.5]];portConstraint=eastwest;" parent="ht5rBl-SjjFZBpGq4qYo-1" vertex="1">
          <mxGeometry y="195" width="400" height="25" as="geometry" />
        </mxCell>
        <mxCell id="ht5rBl-SjjFZBpGq4qYo-139" value="" style="shape=partialRectangle;html=1;whiteSpace=wrap;connectable=0;strokeColor=inherit;overflow=hidden;fillColor=none;top=0;left=0;bottom=0;right=0;pointerEvents=1;" parent="ht5rBl-SjjFZBpGq4qYo-138" vertex="1">
          <mxGeometry width="25" height="25" as="geometry">
            <mxRectangle width="25" height="25" as="alternateBounds" />
          </mxGeometry>
        </mxCell>
        <mxCell id="ht5rBl-SjjFZBpGq4qYo-140" value="" style="shape=partialRectangle;html=1;whiteSpace=wrap;connectable=0;strokeColor=inherit;overflow=hidden;fillColor=none;top=0;left=0;bottom=0;right=0;pointerEvents=1;" parent="ht5rBl-SjjFZBpGq4qYo-138" vertex="1">
          <mxGeometry x="25" width="25" height="25" as="geometry">
            <mxRectangle width="25" height="25" as="alternateBounds" />
          </mxGeometry>
        </mxCell>
        <mxCell id="ht5rBl-SjjFZBpGq4qYo-141" value="" style="shape=partialRectangle;html=1;whiteSpace=wrap;connectable=0;strokeColor=inherit;overflow=hidden;fillColor=none;top=0;left=0;bottom=0;right=0;pointerEvents=1;" parent="ht5rBl-SjjFZBpGq4qYo-138" vertex="1">
          <mxGeometry x="50" width="25" height="25" as="geometry">
            <mxRectangle width="25" height="25" as="alternateBounds" />
          </mxGeometry>
        </mxCell>
        <mxCell id="ht5rBl-SjjFZBpGq4qYo-142" value="" style="shape=partialRectangle;html=1;whiteSpace=wrap;connectable=0;strokeColor=inherit;overflow=hidden;fillColor=none;top=0;left=0;bottom=0;right=0;pointerEvents=1;" parent="ht5rBl-SjjFZBpGq4qYo-138" vertex="1">
          <mxGeometry x="75" width="25" height="25" as="geometry">
            <mxRectangle width="25" height="25" as="alternateBounds" />
          </mxGeometry>
        </mxCell>
        <mxCell id="ht5rBl-SjjFZBpGq4qYo-143" value="" style="shape=partialRectangle;html=1;whiteSpace=wrap;connectable=0;strokeColor=inherit;overflow=hidden;fillColor=none;top=0;left=0;bottom=0;right=0;pointerEvents=1;" parent="ht5rBl-SjjFZBpGq4qYo-138" vertex="1">
          <mxGeometry x="100" width="25" height="25" as="geometry">
            <mxRectangle width="25" height="25" as="alternateBounds" />
          </mxGeometry>
        </mxCell>
        <mxCell id="ht5rBl-SjjFZBpGq4qYo-144" value="" style="shape=partialRectangle;html=1;whiteSpace=wrap;connectable=0;strokeColor=inherit;overflow=hidden;fillColor=none;top=0;left=0;bottom=0;right=0;pointerEvents=1;" parent="ht5rBl-SjjFZBpGq4qYo-138" vertex="1">
          <mxGeometry x="125" width="25" height="25" as="geometry">
            <mxRectangle width="25" height="25" as="alternateBounds" />
          </mxGeometry>
        </mxCell>
        <mxCell id="ht5rBl-SjjFZBpGq4qYo-145" value="" style="shape=partialRectangle;html=1;whiteSpace=wrap;connectable=0;strokeColor=inherit;overflow=hidden;fillColor=none;top=0;left=0;bottom=0;right=0;pointerEvents=1;" parent="ht5rBl-SjjFZBpGq4qYo-138" vertex="1">
          <mxGeometry x="150" width="25" height="25" as="geometry">
            <mxRectangle width="25" height="25" as="alternateBounds" />
          </mxGeometry>
        </mxCell>
        <mxCell id="ht5rBl-SjjFZBpGq4qYo-146" value="" style="shape=partialRectangle;html=1;whiteSpace=wrap;connectable=0;strokeColor=inherit;overflow=hidden;fillColor=none;top=0;left=0;bottom=0;right=0;pointerEvents=1;" parent="ht5rBl-SjjFZBpGq4qYo-138" vertex="1">
          <mxGeometry x="175" width="25" height="25" as="geometry">
            <mxRectangle width="25" height="25" as="alternateBounds" />
          </mxGeometry>
        </mxCell>
        <mxCell id="ht5rBl-SjjFZBpGq4qYo-147" value="&lt;font color=&quot;#ff0000&quot;&gt;1&lt;/font&gt;" style="shape=partialRectangle;html=1;whiteSpace=wrap;connectable=0;strokeColor=inherit;overflow=hidden;fillColor=none;top=0;left=0;bottom=0;right=0;pointerEvents=1;" parent="ht5rBl-SjjFZBpGq4qYo-138" vertex="1">
          <mxGeometry x="200" width="25" height="25" as="geometry">
            <mxRectangle width="25" height="25" as="alternateBounds" />
          </mxGeometry>
        </mxCell>
        <mxCell id="ht5rBl-SjjFZBpGq4qYo-148" value="" style="shape=partialRectangle;html=1;whiteSpace=wrap;connectable=0;strokeColor=inherit;overflow=hidden;fillColor=none;top=0;left=0;bottom=0;right=0;pointerEvents=1;" parent="ht5rBl-SjjFZBpGq4qYo-138" vertex="1">
          <mxGeometry x="225" width="25" height="25" as="geometry">
            <mxRectangle width="25" height="25" as="alternateBounds" />
          </mxGeometry>
        </mxCell>
        <mxCell id="ht5rBl-SjjFZBpGq4qYo-149" value="" style="shape=partialRectangle;html=1;whiteSpace=wrap;connectable=0;strokeColor=inherit;overflow=hidden;fillColor=none;top=0;left=0;bottom=0;right=0;pointerEvents=1;" parent="ht5rBl-SjjFZBpGq4qYo-138" vertex="1">
          <mxGeometry x="250" width="25" height="25" as="geometry">
            <mxRectangle width="25" height="25" as="alternateBounds" />
          </mxGeometry>
        </mxCell>
        <mxCell id="ht5rBl-SjjFZBpGq4qYo-150" value="" style="shape=partialRectangle;html=1;whiteSpace=wrap;connectable=0;strokeColor=inherit;overflow=hidden;fillColor=none;top=0;left=0;bottom=0;right=0;pointerEvents=1;" parent="ht5rBl-SjjFZBpGq4qYo-138" vertex="1">
          <mxGeometry x="275" width="25" height="25" as="geometry">
            <mxRectangle width="25" height="25" as="alternateBounds" />
          </mxGeometry>
        </mxCell>
        <mxCell id="ht5rBl-SjjFZBpGq4qYo-151" value="" style="shape=partialRectangle;html=1;whiteSpace=wrap;connectable=0;strokeColor=inherit;overflow=hidden;fillColor=none;top=0;left=0;bottom=0;right=0;pointerEvents=1;" parent="ht5rBl-SjjFZBpGq4qYo-138" vertex="1">
          <mxGeometry x="300" width="25" height="25" as="geometry">
            <mxRectangle width="25" height="25" as="alternateBounds" />
          </mxGeometry>
        </mxCell>
        <mxCell id="ht5rBl-SjjFZBpGq4qYo-152" value="" style="shape=partialRectangle;html=1;whiteSpace=wrap;connectable=0;strokeColor=inherit;overflow=hidden;fillColor=none;top=0;left=0;bottom=0;right=0;pointerEvents=1;" parent="ht5rBl-SjjFZBpGq4qYo-138" vertex="1">
          <mxGeometry x="325" width="25" height="25" as="geometry">
            <mxRectangle width="25" height="25" as="alternateBounds" />
          </mxGeometry>
        </mxCell>
        <mxCell id="ht5rBl-SjjFZBpGq4qYo-153" value="" style="shape=partialRectangle;html=1;whiteSpace=wrap;connectable=0;strokeColor=inherit;overflow=hidden;fillColor=none;top=0;left=0;bottom=0;right=0;pointerEvents=1;" parent="ht5rBl-SjjFZBpGq4qYo-138" vertex="1">
          <mxGeometry x="350" width="25" height="25" as="geometry">
            <mxRectangle width="25" height="25" as="alternateBounds" />
          </mxGeometry>
        </mxCell>
        <mxCell id="ht5rBl-SjjFZBpGq4qYo-154" value="" style="shape=partialRectangle;html=1;whiteSpace=wrap;connectable=0;strokeColor=inherit;overflow=hidden;fillColor=none;top=0;left=0;bottom=0;right=0;pointerEvents=1;" parent="ht5rBl-SjjFZBpGq4qYo-138" vertex="1">
          <mxGeometry x="375" width="25" height="25" as="geometry">
            <mxRectangle width="25" height="25" as="alternateBounds" />
          </mxGeometry>
        </mxCell>
        <mxCell id="ht5rBl-SjjFZBpGq4qYo-155" value="" style="shape=tableRow;horizontal=0;startSize=0;swimlaneHead=0;swimlaneBody=0;strokeColor=inherit;top=0;left=0;bottom=0;right=0;collapsible=0;dropTarget=0;fillColor=none;points=[[0,0.5],[1,0.5]];portConstraint=eastwest;" parent="ht5rBl-SjjFZBpGq4qYo-1" vertex="1">
          <mxGeometry y="220" width="400" height="25" as="geometry" />
        </mxCell>
        <mxCell id="ht5rBl-SjjFZBpGq4qYo-156" value="" style="shape=partialRectangle;html=1;whiteSpace=wrap;connectable=0;strokeColor=inherit;overflow=hidden;fillColor=none;top=0;left=0;bottom=0;right=0;pointerEvents=1;" parent="ht5rBl-SjjFZBpGq4qYo-155" vertex="1">
          <mxGeometry width="25" height="25" as="geometry">
            <mxRectangle width="25" height="25" as="alternateBounds" />
          </mxGeometry>
        </mxCell>
        <mxCell id="ht5rBl-SjjFZBpGq4qYo-157" value="" style="shape=partialRectangle;html=1;whiteSpace=wrap;connectable=0;strokeColor=inherit;overflow=hidden;fillColor=none;top=0;left=0;bottom=0;right=0;pointerEvents=1;" parent="ht5rBl-SjjFZBpGq4qYo-155" vertex="1">
          <mxGeometry x="25" width="25" height="25" as="geometry">
            <mxRectangle width="25" height="25" as="alternateBounds" />
          </mxGeometry>
        </mxCell>
        <mxCell id="ht5rBl-SjjFZBpGq4qYo-158" value="" style="shape=partialRectangle;html=1;whiteSpace=wrap;connectable=0;strokeColor=inherit;overflow=hidden;fillColor=none;top=0;left=0;bottom=0;right=0;pointerEvents=1;" parent="ht5rBl-SjjFZBpGq4qYo-155" vertex="1">
          <mxGeometry x="50" width="25" height="25" as="geometry">
            <mxRectangle width="25" height="25" as="alternateBounds" />
          </mxGeometry>
        </mxCell>
        <mxCell id="ht5rBl-SjjFZBpGq4qYo-159" value="" style="shape=partialRectangle;html=1;whiteSpace=wrap;connectable=0;strokeColor=inherit;overflow=hidden;fillColor=none;top=0;left=0;bottom=0;right=0;pointerEvents=1;" parent="ht5rBl-SjjFZBpGq4qYo-155" vertex="1">
          <mxGeometry x="75" width="25" height="25" as="geometry">
            <mxRectangle width="25" height="25" as="alternateBounds" />
          </mxGeometry>
        </mxCell>
        <mxCell id="ht5rBl-SjjFZBpGq4qYo-160" value="" style="shape=partialRectangle;html=1;whiteSpace=wrap;connectable=0;strokeColor=inherit;overflow=hidden;fillColor=none;top=0;left=0;bottom=0;right=0;pointerEvents=1;" parent="ht5rBl-SjjFZBpGq4qYo-155" vertex="1">
          <mxGeometry x="100" width="25" height="25" as="geometry">
            <mxRectangle width="25" height="25" as="alternateBounds" />
          </mxGeometry>
        </mxCell>
        <mxCell id="ht5rBl-SjjFZBpGq4qYo-161" value="" style="shape=partialRectangle;html=1;whiteSpace=wrap;connectable=0;strokeColor=inherit;overflow=hidden;fillColor=none;top=0;left=0;bottom=0;right=0;pointerEvents=1;" parent="ht5rBl-SjjFZBpGq4qYo-155" vertex="1">
          <mxGeometry x="125" width="25" height="25" as="geometry">
            <mxRectangle width="25" height="25" as="alternateBounds" />
          </mxGeometry>
        </mxCell>
        <mxCell id="ht5rBl-SjjFZBpGq4qYo-162" value="" style="shape=partialRectangle;html=1;whiteSpace=wrap;connectable=0;strokeColor=inherit;overflow=hidden;fillColor=none;top=0;left=0;bottom=0;right=0;pointerEvents=1;" parent="ht5rBl-SjjFZBpGq4qYo-155" vertex="1">
          <mxGeometry x="150" width="25" height="25" as="geometry">
            <mxRectangle width="25" height="25" as="alternateBounds" />
          </mxGeometry>
        </mxCell>
        <mxCell id="ht5rBl-SjjFZBpGq4qYo-163" value="" style="shape=partialRectangle;html=1;whiteSpace=wrap;connectable=0;strokeColor=inherit;overflow=hidden;fillColor=none;top=0;left=0;bottom=0;right=0;pointerEvents=1;" parent="ht5rBl-SjjFZBpGq4qYo-155" vertex="1">
          <mxGeometry x="175" width="25" height="25" as="geometry">
            <mxRectangle width="25" height="25" as="alternateBounds" />
          </mxGeometry>
        </mxCell>
        <mxCell id="ht5rBl-SjjFZBpGq4qYo-164" value="" style="shape=partialRectangle;html=1;whiteSpace=wrap;connectable=0;strokeColor=inherit;overflow=hidden;fillColor=none;top=0;left=0;bottom=0;right=0;pointerEvents=1;" parent="ht5rBl-SjjFZBpGq4qYo-155" vertex="1">
          <mxGeometry x="200" width="25" height="25" as="geometry">
            <mxRectangle width="25" height="25" as="alternateBounds" />
          </mxGeometry>
        </mxCell>
        <mxCell id="ht5rBl-SjjFZBpGq4qYo-165" value="&lt;font color=&quot;#ff0000&quot;&gt;1&lt;/font&gt;" style="shape=partialRectangle;html=1;whiteSpace=wrap;connectable=0;strokeColor=inherit;overflow=hidden;fillColor=none;top=0;left=0;bottom=0;right=0;pointerEvents=1;" parent="ht5rBl-SjjFZBpGq4qYo-155" vertex="1">
          <mxGeometry x="225" width="25" height="25" as="geometry">
            <mxRectangle width="25" height="25" as="alternateBounds" />
          </mxGeometry>
        </mxCell>
        <mxCell id="ht5rBl-SjjFZBpGq4qYo-166" value="" style="shape=partialRectangle;html=1;whiteSpace=wrap;connectable=0;strokeColor=inherit;overflow=hidden;fillColor=none;top=0;left=0;bottom=0;right=0;pointerEvents=1;" parent="ht5rBl-SjjFZBpGq4qYo-155" vertex="1">
          <mxGeometry x="250" width="25" height="25" as="geometry">
            <mxRectangle width="25" height="25" as="alternateBounds" />
          </mxGeometry>
        </mxCell>
        <mxCell id="ht5rBl-SjjFZBpGq4qYo-167" value="" style="shape=partialRectangle;html=1;whiteSpace=wrap;connectable=0;strokeColor=inherit;overflow=hidden;fillColor=none;top=0;left=0;bottom=0;right=0;pointerEvents=1;" parent="ht5rBl-SjjFZBpGq4qYo-155" vertex="1">
          <mxGeometry x="275" width="25" height="25" as="geometry">
            <mxRectangle width="25" height="25" as="alternateBounds" />
          </mxGeometry>
        </mxCell>
        <mxCell id="ht5rBl-SjjFZBpGq4qYo-168" value="" style="shape=partialRectangle;html=1;whiteSpace=wrap;connectable=0;strokeColor=inherit;overflow=hidden;fillColor=none;top=0;left=0;bottom=0;right=0;pointerEvents=1;" parent="ht5rBl-SjjFZBpGq4qYo-155" vertex="1">
          <mxGeometry x="300" width="25" height="25" as="geometry">
            <mxRectangle width="25" height="25" as="alternateBounds" />
          </mxGeometry>
        </mxCell>
        <mxCell id="ht5rBl-SjjFZBpGq4qYo-169" value="" style="shape=partialRectangle;html=1;whiteSpace=wrap;connectable=0;strokeColor=inherit;overflow=hidden;fillColor=none;top=0;left=0;bottom=0;right=0;pointerEvents=1;" parent="ht5rBl-SjjFZBpGq4qYo-155" vertex="1">
          <mxGeometry x="325" width="25" height="25" as="geometry">
            <mxRectangle width="25" height="25" as="alternateBounds" />
          </mxGeometry>
        </mxCell>
        <mxCell id="ht5rBl-SjjFZBpGq4qYo-170" value="" style="shape=partialRectangle;html=1;whiteSpace=wrap;connectable=0;strokeColor=inherit;overflow=hidden;fillColor=none;top=0;left=0;bottom=0;right=0;pointerEvents=1;" parent="ht5rBl-SjjFZBpGq4qYo-155" vertex="1">
          <mxGeometry x="350" width="25" height="25" as="geometry">
            <mxRectangle width="25" height="25" as="alternateBounds" />
          </mxGeometry>
        </mxCell>
        <mxCell id="ht5rBl-SjjFZBpGq4qYo-171" value="" style="shape=partialRectangle;html=1;whiteSpace=wrap;connectable=0;strokeColor=inherit;overflow=hidden;fillColor=none;top=0;left=0;bottom=0;right=0;pointerEvents=1;" parent="ht5rBl-SjjFZBpGq4qYo-155" vertex="1">
          <mxGeometry x="375" width="25" height="25" as="geometry">
            <mxRectangle width="25" height="25" as="alternateBounds" />
          </mxGeometry>
        </mxCell>
        <mxCell id="ht5rBl-SjjFZBpGq4qYo-172" value="" style="shape=tableRow;horizontal=0;startSize=0;swimlaneHead=0;swimlaneBody=0;strokeColor=inherit;top=0;left=0;bottom=0;right=0;collapsible=0;dropTarget=0;fillColor=none;points=[[0,0.5],[1,0.5]];portConstraint=eastwest;" parent="ht5rBl-SjjFZBpGq4qYo-1" vertex="1">
          <mxGeometry y="245" width="400" height="25" as="geometry" />
        </mxCell>
        <mxCell id="ht5rBl-SjjFZBpGq4qYo-173" value="" style="shape=partialRectangle;html=1;whiteSpace=wrap;connectable=0;strokeColor=inherit;overflow=hidden;fillColor=none;top=0;left=0;bottom=0;right=0;pointerEvents=1;" parent="ht5rBl-SjjFZBpGq4qYo-172" vertex="1">
          <mxGeometry width="25" height="25" as="geometry">
            <mxRectangle width="25" height="25" as="alternateBounds" />
          </mxGeometry>
        </mxCell>
        <mxCell id="ht5rBl-SjjFZBpGq4qYo-174" value="" style="shape=partialRectangle;html=1;whiteSpace=wrap;connectable=0;strokeColor=inherit;overflow=hidden;fillColor=none;top=0;left=0;bottom=0;right=0;pointerEvents=1;" parent="ht5rBl-SjjFZBpGq4qYo-172" vertex="1">
          <mxGeometry x="25" width="25" height="25" as="geometry">
            <mxRectangle width="25" height="25" as="alternateBounds" />
          </mxGeometry>
        </mxCell>
        <mxCell id="ht5rBl-SjjFZBpGq4qYo-175" value="" style="shape=partialRectangle;html=1;whiteSpace=wrap;connectable=0;strokeColor=inherit;overflow=hidden;fillColor=none;top=0;left=0;bottom=0;right=0;pointerEvents=1;" parent="ht5rBl-SjjFZBpGq4qYo-172" vertex="1">
          <mxGeometry x="50" width="25" height="25" as="geometry">
            <mxRectangle width="25" height="25" as="alternateBounds" />
          </mxGeometry>
        </mxCell>
        <mxCell id="ht5rBl-SjjFZBpGq4qYo-176" value="" style="shape=partialRectangle;html=1;whiteSpace=wrap;connectable=0;strokeColor=inherit;overflow=hidden;fillColor=none;top=0;left=0;bottom=0;right=0;pointerEvents=1;" parent="ht5rBl-SjjFZBpGq4qYo-172" vertex="1">
          <mxGeometry x="75" width="25" height="25" as="geometry">
            <mxRectangle width="25" height="25" as="alternateBounds" />
          </mxGeometry>
        </mxCell>
        <mxCell id="ht5rBl-SjjFZBpGq4qYo-177" value="" style="shape=partialRectangle;html=1;whiteSpace=wrap;connectable=0;strokeColor=inherit;overflow=hidden;fillColor=none;top=0;left=0;bottom=0;right=0;pointerEvents=1;" parent="ht5rBl-SjjFZBpGq4qYo-172" vertex="1">
          <mxGeometry x="100" width="25" height="25" as="geometry">
            <mxRectangle width="25" height="25" as="alternateBounds" />
          </mxGeometry>
        </mxCell>
        <mxCell id="ht5rBl-SjjFZBpGq4qYo-178" value="" style="shape=partialRectangle;html=1;whiteSpace=wrap;connectable=0;strokeColor=inherit;overflow=hidden;fillColor=none;top=0;left=0;bottom=0;right=0;pointerEvents=1;" parent="ht5rBl-SjjFZBpGq4qYo-172" vertex="1">
          <mxGeometry x="125" width="25" height="25" as="geometry">
            <mxRectangle width="25" height="25" as="alternateBounds" />
          </mxGeometry>
        </mxCell>
        <mxCell id="ht5rBl-SjjFZBpGq4qYo-179" value="" style="shape=partialRectangle;html=1;whiteSpace=wrap;connectable=0;strokeColor=inherit;overflow=hidden;fillColor=none;top=0;left=0;bottom=0;right=0;pointerEvents=1;" parent="ht5rBl-SjjFZBpGq4qYo-172" vertex="1">
          <mxGeometry x="150" width="25" height="25" as="geometry">
            <mxRectangle width="25" height="25" as="alternateBounds" />
          </mxGeometry>
        </mxCell>
        <mxCell id="ht5rBl-SjjFZBpGq4qYo-180" value="" style="shape=partialRectangle;html=1;whiteSpace=wrap;connectable=0;strokeColor=inherit;overflow=hidden;fillColor=none;top=0;left=0;bottom=0;right=0;pointerEvents=1;" parent="ht5rBl-SjjFZBpGq4qYo-172" vertex="1">
          <mxGeometry x="175" width="25" height="25" as="geometry">
            <mxRectangle width="25" height="25" as="alternateBounds" />
          </mxGeometry>
        </mxCell>
        <mxCell id="ht5rBl-SjjFZBpGq4qYo-181" value="" style="shape=partialRectangle;html=1;whiteSpace=wrap;connectable=0;strokeColor=inherit;overflow=hidden;fillColor=none;top=0;left=0;bottom=0;right=0;pointerEvents=1;" parent="ht5rBl-SjjFZBpGq4qYo-172" vertex="1">
          <mxGeometry x="200" width="25" height="25" as="geometry">
            <mxRectangle width="25" height="25" as="alternateBounds" />
          </mxGeometry>
        </mxCell>
        <mxCell id="ht5rBl-SjjFZBpGq4qYo-182" value="" style="shape=partialRectangle;html=1;whiteSpace=wrap;connectable=0;strokeColor=inherit;overflow=hidden;fillColor=none;top=0;left=0;bottom=0;right=0;pointerEvents=1;" parent="ht5rBl-SjjFZBpGq4qYo-172" vertex="1">
          <mxGeometry x="225" width="25" height="25" as="geometry">
            <mxRectangle width="25" height="25" as="alternateBounds" />
          </mxGeometry>
        </mxCell>
        <mxCell id="ht5rBl-SjjFZBpGq4qYo-183" value="&lt;font color=&quot;#ff0000&quot;&gt;1&lt;/font&gt;" style="shape=partialRectangle;html=1;whiteSpace=wrap;connectable=0;strokeColor=inherit;overflow=hidden;fillColor=none;top=0;left=0;bottom=0;right=0;pointerEvents=1;" parent="ht5rBl-SjjFZBpGq4qYo-172" vertex="1">
          <mxGeometry x="250" width="25" height="25" as="geometry">
            <mxRectangle width="25" height="25" as="alternateBounds" />
          </mxGeometry>
        </mxCell>
        <mxCell id="ht5rBl-SjjFZBpGq4qYo-184" value="" style="shape=partialRectangle;html=1;whiteSpace=wrap;connectable=0;strokeColor=inherit;overflow=hidden;fillColor=none;top=0;left=0;bottom=0;right=0;pointerEvents=1;" parent="ht5rBl-SjjFZBpGq4qYo-172" vertex="1">
          <mxGeometry x="275" width="25" height="25" as="geometry">
            <mxRectangle width="25" height="25" as="alternateBounds" />
          </mxGeometry>
        </mxCell>
        <mxCell id="ht5rBl-SjjFZBpGq4qYo-185" value="" style="shape=partialRectangle;html=1;whiteSpace=wrap;connectable=0;strokeColor=inherit;overflow=hidden;fillColor=none;top=0;left=0;bottom=0;right=0;pointerEvents=1;" parent="ht5rBl-SjjFZBpGq4qYo-172" vertex="1">
          <mxGeometry x="300" width="25" height="25" as="geometry">
            <mxRectangle width="25" height="25" as="alternateBounds" />
          </mxGeometry>
        </mxCell>
        <mxCell id="ht5rBl-SjjFZBpGq4qYo-186" value="" style="shape=partialRectangle;html=1;whiteSpace=wrap;connectable=0;strokeColor=inherit;overflow=hidden;fillColor=none;top=0;left=0;bottom=0;right=0;pointerEvents=1;" parent="ht5rBl-SjjFZBpGq4qYo-172" vertex="1">
          <mxGeometry x="325" width="25" height="25" as="geometry">
            <mxRectangle width="25" height="25" as="alternateBounds" />
          </mxGeometry>
        </mxCell>
        <mxCell id="ht5rBl-SjjFZBpGq4qYo-187" value="" style="shape=partialRectangle;html=1;whiteSpace=wrap;connectable=0;strokeColor=inherit;overflow=hidden;fillColor=none;top=0;left=0;bottom=0;right=0;pointerEvents=1;" parent="ht5rBl-SjjFZBpGq4qYo-172" vertex="1">
          <mxGeometry x="350" width="25" height="25" as="geometry">
            <mxRectangle width="25" height="25" as="alternateBounds" />
          </mxGeometry>
        </mxCell>
        <mxCell id="ht5rBl-SjjFZBpGq4qYo-188" value="" style="shape=partialRectangle;html=1;whiteSpace=wrap;connectable=0;strokeColor=inherit;overflow=hidden;fillColor=none;top=0;left=0;bottom=0;right=0;pointerEvents=1;" parent="ht5rBl-SjjFZBpGq4qYo-172" vertex="1">
          <mxGeometry x="375" width="25" height="25" as="geometry">
            <mxRectangle width="25" height="25" as="alternateBounds" />
          </mxGeometry>
        </mxCell>
        <mxCell id="ht5rBl-SjjFZBpGq4qYo-189" value="" style="shape=tableRow;horizontal=0;startSize=0;swimlaneHead=0;swimlaneBody=0;strokeColor=inherit;top=0;left=0;bottom=0;right=0;collapsible=0;dropTarget=0;fillColor=none;points=[[0,0.5],[1,0.5]];portConstraint=eastwest;" parent="ht5rBl-SjjFZBpGq4qYo-1" vertex="1">
          <mxGeometry y="270" width="400" height="25" as="geometry" />
        </mxCell>
        <mxCell id="ht5rBl-SjjFZBpGq4qYo-190" value="" style="shape=partialRectangle;html=1;whiteSpace=wrap;connectable=0;strokeColor=inherit;overflow=hidden;fillColor=none;top=0;left=0;bottom=0;right=0;pointerEvents=1;" parent="ht5rBl-SjjFZBpGq4qYo-189" vertex="1">
          <mxGeometry width="25" height="25" as="geometry">
            <mxRectangle width="25" height="25" as="alternateBounds" />
          </mxGeometry>
        </mxCell>
        <mxCell id="ht5rBl-SjjFZBpGq4qYo-191" value="" style="shape=partialRectangle;html=1;whiteSpace=wrap;connectable=0;strokeColor=inherit;overflow=hidden;fillColor=none;top=0;left=0;bottom=0;right=0;pointerEvents=1;" parent="ht5rBl-SjjFZBpGq4qYo-189" vertex="1">
          <mxGeometry x="25" width="25" height="25" as="geometry">
            <mxRectangle width="25" height="25" as="alternateBounds" />
          </mxGeometry>
        </mxCell>
        <mxCell id="ht5rBl-SjjFZBpGq4qYo-192" value="" style="shape=partialRectangle;html=1;whiteSpace=wrap;connectable=0;strokeColor=inherit;overflow=hidden;fillColor=none;top=0;left=0;bottom=0;right=0;pointerEvents=1;" parent="ht5rBl-SjjFZBpGq4qYo-189" vertex="1">
          <mxGeometry x="50" width="25" height="25" as="geometry">
            <mxRectangle width="25" height="25" as="alternateBounds" />
          </mxGeometry>
        </mxCell>
        <mxCell id="ht5rBl-SjjFZBpGq4qYo-193" value="" style="shape=partialRectangle;html=1;whiteSpace=wrap;connectable=0;strokeColor=inherit;overflow=hidden;fillColor=none;top=0;left=0;bottom=0;right=0;pointerEvents=1;" parent="ht5rBl-SjjFZBpGq4qYo-189" vertex="1">
          <mxGeometry x="75" width="25" height="25" as="geometry">
            <mxRectangle width="25" height="25" as="alternateBounds" />
          </mxGeometry>
        </mxCell>
        <mxCell id="ht5rBl-SjjFZBpGq4qYo-194" value="" style="shape=partialRectangle;html=1;whiteSpace=wrap;connectable=0;strokeColor=inherit;overflow=hidden;fillColor=none;top=0;left=0;bottom=0;right=0;pointerEvents=1;" parent="ht5rBl-SjjFZBpGq4qYo-189" vertex="1">
          <mxGeometry x="100" width="25" height="25" as="geometry">
            <mxRectangle width="25" height="25" as="alternateBounds" />
          </mxGeometry>
        </mxCell>
        <mxCell id="ht5rBl-SjjFZBpGq4qYo-195" value="" style="shape=partialRectangle;html=1;whiteSpace=wrap;connectable=0;strokeColor=inherit;overflow=hidden;fillColor=none;top=0;left=0;bottom=0;right=0;pointerEvents=1;" parent="ht5rBl-SjjFZBpGq4qYo-189" vertex="1">
          <mxGeometry x="125" width="25" height="25" as="geometry">
            <mxRectangle width="25" height="25" as="alternateBounds" />
          </mxGeometry>
        </mxCell>
        <mxCell id="ht5rBl-SjjFZBpGq4qYo-196" value="" style="shape=partialRectangle;html=1;whiteSpace=wrap;connectable=0;strokeColor=inherit;overflow=hidden;fillColor=none;top=0;left=0;bottom=0;right=0;pointerEvents=1;" parent="ht5rBl-SjjFZBpGq4qYo-189" vertex="1">
          <mxGeometry x="150" width="25" height="25" as="geometry">
            <mxRectangle width="25" height="25" as="alternateBounds" />
          </mxGeometry>
        </mxCell>
        <mxCell id="ht5rBl-SjjFZBpGq4qYo-197" value="" style="shape=partialRectangle;html=1;whiteSpace=wrap;connectable=0;strokeColor=inherit;overflow=hidden;fillColor=none;top=0;left=0;bottom=0;right=0;pointerEvents=1;" parent="ht5rBl-SjjFZBpGq4qYo-189" vertex="1">
          <mxGeometry x="175" width="25" height="25" as="geometry">
            <mxRectangle width="25" height="25" as="alternateBounds" />
          </mxGeometry>
        </mxCell>
        <mxCell id="ht5rBl-SjjFZBpGq4qYo-198" value="" style="shape=partialRectangle;html=1;whiteSpace=wrap;connectable=0;strokeColor=inherit;overflow=hidden;fillColor=none;top=0;left=0;bottom=0;right=0;pointerEvents=1;" parent="ht5rBl-SjjFZBpGq4qYo-189" vertex="1">
          <mxGeometry x="200" width="25" height="25" as="geometry">
            <mxRectangle width="25" height="25" as="alternateBounds" />
          </mxGeometry>
        </mxCell>
        <mxCell id="ht5rBl-SjjFZBpGq4qYo-199" value="" style="shape=partialRectangle;html=1;whiteSpace=wrap;connectable=0;strokeColor=inherit;overflow=hidden;fillColor=none;top=0;left=0;bottom=0;right=0;pointerEvents=1;" parent="ht5rBl-SjjFZBpGq4qYo-189" vertex="1">
          <mxGeometry x="225" width="25" height="25" as="geometry">
            <mxRectangle width="25" height="25" as="alternateBounds" />
          </mxGeometry>
        </mxCell>
        <mxCell id="ht5rBl-SjjFZBpGq4qYo-200" value="" style="shape=partialRectangle;html=1;whiteSpace=wrap;connectable=0;strokeColor=inherit;overflow=hidden;fillColor=none;top=0;left=0;bottom=0;right=0;pointerEvents=1;" parent="ht5rBl-SjjFZBpGq4qYo-189" vertex="1">
          <mxGeometry x="250" width="25" height="25" as="geometry">
            <mxRectangle width="25" height="25" as="alternateBounds" />
          </mxGeometry>
        </mxCell>
        <mxCell id="ht5rBl-SjjFZBpGq4qYo-201" value="&lt;font color=&quot;#ff0000&quot;&gt;1&lt;/font&gt;" style="shape=partialRectangle;html=1;whiteSpace=wrap;connectable=0;strokeColor=inherit;overflow=hidden;fillColor=none;top=0;left=0;bottom=0;right=0;pointerEvents=1;" parent="ht5rBl-SjjFZBpGq4qYo-189" vertex="1">
          <mxGeometry x="275" width="25" height="25" as="geometry">
            <mxRectangle width="25" height="25" as="alternateBounds" />
          </mxGeometry>
        </mxCell>
        <mxCell id="ht5rBl-SjjFZBpGq4qYo-202" value="" style="shape=partialRectangle;html=1;whiteSpace=wrap;connectable=0;strokeColor=inherit;overflow=hidden;fillColor=none;top=0;left=0;bottom=0;right=0;pointerEvents=1;" parent="ht5rBl-SjjFZBpGq4qYo-189" vertex="1">
          <mxGeometry x="300" width="25" height="25" as="geometry">
            <mxRectangle width="25" height="25" as="alternateBounds" />
          </mxGeometry>
        </mxCell>
        <mxCell id="ht5rBl-SjjFZBpGq4qYo-203" value="" style="shape=partialRectangle;html=1;whiteSpace=wrap;connectable=0;strokeColor=inherit;overflow=hidden;fillColor=none;top=0;left=0;bottom=0;right=0;pointerEvents=1;" parent="ht5rBl-SjjFZBpGq4qYo-189" vertex="1">
          <mxGeometry x="325" width="25" height="25" as="geometry">
            <mxRectangle width="25" height="25" as="alternateBounds" />
          </mxGeometry>
        </mxCell>
        <mxCell id="ht5rBl-SjjFZBpGq4qYo-204" value="" style="shape=partialRectangle;html=1;whiteSpace=wrap;connectable=0;strokeColor=inherit;overflow=hidden;fillColor=none;top=0;left=0;bottom=0;right=0;pointerEvents=1;" parent="ht5rBl-SjjFZBpGq4qYo-189" vertex="1">
          <mxGeometry x="350" width="25" height="25" as="geometry">
            <mxRectangle width="25" height="25" as="alternateBounds" />
          </mxGeometry>
        </mxCell>
        <mxCell id="ht5rBl-SjjFZBpGq4qYo-205" value="" style="shape=partialRectangle;html=1;whiteSpace=wrap;connectable=0;strokeColor=inherit;overflow=hidden;fillColor=none;top=0;left=0;bottom=0;right=0;pointerEvents=1;" parent="ht5rBl-SjjFZBpGq4qYo-189" vertex="1">
          <mxGeometry x="375" width="25" height="25" as="geometry">
            <mxRectangle width="25" height="25" as="alternateBounds" />
          </mxGeometry>
        </mxCell>
        <mxCell id="ht5rBl-SjjFZBpGq4qYo-206" value="" style="shape=tableRow;horizontal=0;startSize=0;swimlaneHead=0;swimlaneBody=0;strokeColor=inherit;top=0;left=0;bottom=0;right=0;collapsible=0;dropTarget=0;fillColor=none;points=[[0,0.5],[1,0.5]];portConstraint=eastwest;" parent="ht5rBl-SjjFZBpGq4qYo-1" vertex="1">
          <mxGeometry y="295" width="400" height="25" as="geometry" />
        </mxCell>
        <mxCell id="ht5rBl-SjjFZBpGq4qYo-207" value="" style="shape=partialRectangle;html=1;whiteSpace=wrap;connectable=0;strokeColor=inherit;overflow=hidden;fillColor=none;top=0;left=0;bottom=0;right=0;pointerEvents=1;" parent="ht5rBl-SjjFZBpGq4qYo-206" vertex="1">
          <mxGeometry width="25" height="25" as="geometry">
            <mxRectangle width="25" height="25" as="alternateBounds" />
          </mxGeometry>
        </mxCell>
        <mxCell id="ht5rBl-SjjFZBpGq4qYo-208" value="" style="shape=partialRectangle;html=1;whiteSpace=wrap;connectable=0;strokeColor=inherit;overflow=hidden;fillColor=none;top=0;left=0;bottom=0;right=0;pointerEvents=1;" parent="ht5rBl-SjjFZBpGq4qYo-206" vertex="1">
          <mxGeometry x="25" width="25" height="25" as="geometry">
            <mxRectangle width="25" height="25" as="alternateBounds" />
          </mxGeometry>
        </mxCell>
        <mxCell id="ht5rBl-SjjFZBpGq4qYo-209" value="" style="shape=partialRectangle;html=1;whiteSpace=wrap;connectable=0;strokeColor=inherit;overflow=hidden;fillColor=none;top=0;left=0;bottom=0;right=0;pointerEvents=1;" parent="ht5rBl-SjjFZBpGq4qYo-206" vertex="1">
          <mxGeometry x="50" width="25" height="25" as="geometry">
            <mxRectangle width="25" height="25" as="alternateBounds" />
          </mxGeometry>
        </mxCell>
        <mxCell id="ht5rBl-SjjFZBpGq4qYo-210" value="" style="shape=partialRectangle;html=1;whiteSpace=wrap;connectable=0;strokeColor=inherit;overflow=hidden;fillColor=none;top=0;left=0;bottom=0;right=0;pointerEvents=1;" parent="ht5rBl-SjjFZBpGq4qYo-206" vertex="1">
          <mxGeometry x="75" width="25" height="25" as="geometry">
            <mxRectangle width="25" height="25" as="alternateBounds" />
          </mxGeometry>
        </mxCell>
        <mxCell id="ht5rBl-SjjFZBpGq4qYo-211" value="" style="shape=partialRectangle;html=1;whiteSpace=wrap;connectable=0;strokeColor=inherit;overflow=hidden;fillColor=none;top=0;left=0;bottom=0;right=0;pointerEvents=1;" parent="ht5rBl-SjjFZBpGq4qYo-206" vertex="1">
          <mxGeometry x="100" width="25" height="25" as="geometry">
            <mxRectangle width="25" height="25" as="alternateBounds" />
          </mxGeometry>
        </mxCell>
        <mxCell id="ht5rBl-SjjFZBpGq4qYo-212" value="" style="shape=partialRectangle;html=1;whiteSpace=wrap;connectable=0;strokeColor=inherit;overflow=hidden;fillColor=none;top=0;left=0;bottom=0;right=0;pointerEvents=1;" parent="ht5rBl-SjjFZBpGq4qYo-206" vertex="1">
          <mxGeometry x="125" width="25" height="25" as="geometry">
            <mxRectangle width="25" height="25" as="alternateBounds" />
          </mxGeometry>
        </mxCell>
        <mxCell id="ht5rBl-SjjFZBpGq4qYo-213" value="" style="shape=partialRectangle;html=1;whiteSpace=wrap;connectable=0;strokeColor=inherit;overflow=hidden;fillColor=none;top=0;left=0;bottom=0;right=0;pointerEvents=1;" parent="ht5rBl-SjjFZBpGq4qYo-206" vertex="1">
          <mxGeometry x="150" width="25" height="25" as="geometry">
            <mxRectangle width="25" height="25" as="alternateBounds" />
          </mxGeometry>
        </mxCell>
        <mxCell id="ht5rBl-SjjFZBpGq4qYo-214" value="" style="shape=partialRectangle;html=1;whiteSpace=wrap;connectable=0;strokeColor=inherit;overflow=hidden;fillColor=none;top=0;left=0;bottom=0;right=0;pointerEvents=1;" parent="ht5rBl-SjjFZBpGq4qYo-206" vertex="1">
          <mxGeometry x="175" width="25" height="25" as="geometry">
            <mxRectangle width="25" height="25" as="alternateBounds" />
          </mxGeometry>
        </mxCell>
        <mxCell id="ht5rBl-SjjFZBpGq4qYo-215" value="" style="shape=partialRectangle;html=1;whiteSpace=wrap;connectable=0;strokeColor=inherit;overflow=hidden;fillColor=none;top=0;left=0;bottom=0;right=0;pointerEvents=1;" parent="ht5rBl-SjjFZBpGq4qYo-206" vertex="1">
          <mxGeometry x="200" width="25" height="25" as="geometry">
            <mxRectangle width="25" height="25" as="alternateBounds" />
          </mxGeometry>
        </mxCell>
        <mxCell id="ht5rBl-SjjFZBpGq4qYo-216" value="" style="shape=partialRectangle;html=1;whiteSpace=wrap;connectable=0;strokeColor=inherit;overflow=hidden;fillColor=none;top=0;left=0;bottom=0;right=0;pointerEvents=1;" parent="ht5rBl-SjjFZBpGq4qYo-206" vertex="1">
          <mxGeometry x="225" width="25" height="25" as="geometry">
            <mxRectangle width="25" height="25" as="alternateBounds" />
          </mxGeometry>
        </mxCell>
        <mxCell id="ht5rBl-SjjFZBpGq4qYo-217" value="" style="shape=partialRectangle;html=1;whiteSpace=wrap;connectable=0;strokeColor=inherit;overflow=hidden;fillColor=none;top=0;left=0;bottom=0;right=0;pointerEvents=1;" parent="ht5rBl-SjjFZBpGq4qYo-206" vertex="1">
          <mxGeometry x="250" width="25" height="25" as="geometry">
            <mxRectangle width="25" height="25" as="alternateBounds" />
          </mxGeometry>
        </mxCell>
        <mxCell id="ht5rBl-SjjFZBpGq4qYo-218" value="" style="shape=partialRectangle;html=1;whiteSpace=wrap;connectable=0;strokeColor=inherit;overflow=hidden;fillColor=none;top=0;left=0;bottom=0;right=0;pointerEvents=1;" parent="ht5rBl-SjjFZBpGq4qYo-206" vertex="1">
          <mxGeometry x="275" width="25" height="25" as="geometry">
            <mxRectangle width="25" height="25" as="alternateBounds" />
          </mxGeometry>
        </mxCell>
        <mxCell id="ht5rBl-SjjFZBpGq4qYo-219" value="" style="shape=partialRectangle;html=1;whiteSpace=wrap;connectable=0;strokeColor=inherit;overflow=hidden;fillColor=none;top=0;left=0;bottom=0;right=0;pointerEvents=1;" parent="ht5rBl-SjjFZBpGq4qYo-206" vertex="1">
          <mxGeometry x="300" width="25" height="25" as="geometry">
            <mxRectangle width="25" height="25" as="alternateBounds" />
          </mxGeometry>
        </mxCell>
        <mxCell id="ht5rBl-SjjFZBpGq4qYo-220" value="" style="shape=partialRectangle;html=1;whiteSpace=wrap;connectable=0;strokeColor=inherit;overflow=hidden;fillColor=none;top=0;left=0;bottom=0;right=0;pointerEvents=1;" parent="ht5rBl-SjjFZBpGq4qYo-206" vertex="1">
          <mxGeometry x="325" width="25" height="25" as="geometry">
            <mxRectangle width="25" height="25" as="alternateBounds" />
          </mxGeometry>
        </mxCell>
        <mxCell id="ht5rBl-SjjFZBpGq4qYo-221" value="" style="shape=partialRectangle;html=1;whiteSpace=wrap;connectable=0;strokeColor=inherit;overflow=hidden;fillColor=none;top=0;left=0;bottom=0;right=0;pointerEvents=1;" parent="ht5rBl-SjjFZBpGq4qYo-206" vertex="1">
          <mxGeometry x="350" width="25" height="25" as="geometry">
            <mxRectangle width="25" height="25" as="alternateBounds" />
          </mxGeometry>
        </mxCell>
        <mxCell id="ht5rBl-SjjFZBpGq4qYo-222" value="" style="shape=partialRectangle;html=1;whiteSpace=wrap;connectable=0;strokeColor=inherit;overflow=hidden;fillColor=none;top=0;left=0;bottom=0;right=0;pointerEvents=1;" parent="ht5rBl-SjjFZBpGq4qYo-206" vertex="1">
          <mxGeometry x="375" width="25" height="25" as="geometry">
            <mxRectangle width="25" height="25" as="alternateBounds" />
          </mxGeometry>
        </mxCell>
        <mxCell id="ht5rBl-SjjFZBpGq4qYo-223" value="" style="shape=tableRow;horizontal=0;startSize=0;swimlaneHead=0;swimlaneBody=0;strokeColor=inherit;top=0;left=0;bottom=0;right=0;collapsible=0;dropTarget=0;fillColor=none;points=[[0,0.5],[1,0.5]];portConstraint=eastwest;" parent="ht5rBl-SjjFZBpGq4qYo-1" vertex="1">
          <mxGeometry y="320" width="400" height="25" as="geometry" />
        </mxCell>
        <mxCell id="ht5rBl-SjjFZBpGq4qYo-224" value="" style="shape=partialRectangle;html=1;whiteSpace=wrap;connectable=0;strokeColor=inherit;overflow=hidden;fillColor=none;top=0;left=0;bottom=0;right=0;pointerEvents=1;" parent="ht5rBl-SjjFZBpGq4qYo-223" vertex="1">
          <mxGeometry width="25" height="25" as="geometry">
            <mxRectangle width="25" height="25" as="alternateBounds" />
          </mxGeometry>
        </mxCell>
        <mxCell id="ht5rBl-SjjFZBpGq4qYo-225" value="" style="shape=partialRectangle;html=1;whiteSpace=wrap;connectable=0;strokeColor=inherit;overflow=hidden;fillColor=none;top=0;left=0;bottom=0;right=0;pointerEvents=1;" parent="ht5rBl-SjjFZBpGq4qYo-223" vertex="1">
          <mxGeometry x="25" width="25" height="25" as="geometry">
            <mxRectangle width="25" height="25" as="alternateBounds" />
          </mxGeometry>
        </mxCell>
        <mxCell id="ht5rBl-SjjFZBpGq4qYo-226" value="" style="shape=partialRectangle;html=1;whiteSpace=wrap;connectable=0;strokeColor=inherit;overflow=hidden;fillColor=none;top=0;left=0;bottom=0;right=0;pointerEvents=1;" parent="ht5rBl-SjjFZBpGq4qYo-223" vertex="1">
          <mxGeometry x="50" width="25" height="25" as="geometry">
            <mxRectangle width="25" height="25" as="alternateBounds" />
          </mxGeometry>
        </mxCell>
        <mxCell id="ht5rBl-SjjFZBpGq4qYo-227" value="" style="shape=partialRectangle;html=1;whiteSpace=wrap;connectable=0;strokeColor=inherit;overflow=hidden;fillColor=none;top=0;left=0;bottom=0;right=0;pointerEvents=1;" parent="ht5rBl-SjjFZBpGq4qYo-223" vertex="1">
          <mxGeometry x="75" width="25" height="25" as="geometry">
            <mxRectangle width="25" height="25" as="alternateBounds" />
          </mxGeometry>
        </mxCell>
        <mxCell id="ht5rBl-SjjFZBpGq4qYo-228" value="" style="shape=partialRectangle;html=1;whiteSpace=wrap;connectable=0;strokeColor=inherit;overflow=hidden;fillColor=none;top=0;left=0;bottom=0;right=0;pointerEvents=1;" parent="ht5rBl-SjjFZBpGq4qYo-223" vertex="1">
          <mxGeometry x="100" width="25" height="25" as="geometry">
            <mxRectangle width="25" height="25" as="alternateBounds" />
          </mxGeometry>
        </mxCell>
        <mxCell id="ht5rBl-SjjFZBpGq4qYo-229" value="" style="shape=partialRectangle;html=1;whiteSpace=wrap;connectable=0;strokeColor=inherit;overflow=hidden;fillColor=none;top=0;left=0;bottom=0;right=0;pointerEvents=1;" parent="ht5rBl-SjjFZBpGq4qYo-223" vertex="1">
          <mxGeometry x="125" width="25" height="25" as="geometry">
            <mxRectangle width="25" height="25" as="alternateBounds" />
          </mxGeometry>
        </mxCell>
        <mxCell id="ht5rBl-SjjFZBpGq4qYo-230" value="" style="shape=partialRectangle;html=1;whiteSpace=wrap;connectable=0;strokeColor=inherit;overflow=hidden;fillColor=none;top=0;left=0;bottom=0;right=0;pointerEvents=1;" parent="ht5rBl-SjjFZBpGq4qYo-223" vertex="1">
          <mxGeometry x="150" width="25" height="25" as="geometry">
            <mxRectangle width="25" height="25" as="alternateBounds" />
          </mxGeometry>
        </mxCell>
        <mxCell id="ht5rBl-SjjFZBpGq4qYo-231" value="" style="shape=partialRectangle;html=1;whiteSpace=wrap;connectable=0;strokeColor=inherit;overflow=hidden;fillColor=none;top=0;left=0;bottom=0;right=0;pointerEvents=1;" parent="ht5rBl-SjjFZBpGq4qYo-223" vertex="1">
          <mxGeometry x="175" width="25" height="25" as="geometry">
            <mxRectangle width="25" height="25" as="alternateBounds" />
          </mxGeometry>
        </mxCell>
        <mxCell id="ht5rBl-SjjFZBpGq4qYo-232" value="" style="shape=partialRectangle;html=1;whiteSpace=wrap;connectable=0;strokeColor=inherit;overflow=hidden;fillColor=none;top=0;left=0;bottom=0;right=0;pointerEvents=1;" parent="ht5rBl-SjjFZBpGq4qYo-223" vertex="1">
          <mxGeometry x="200" width="25" height="25" as="geometry">
            <mxRectangle width="25" height="25" as="alternateBounds" />
          </mxGeometry>
        </mxCell>
        <mxCell id="ht5rBl-SjjFZBpGq4qYo-233" value="" style="shape=partialRectangle;html=1;whiteSpace=wrap;connectable=0;strokeColor=inherit;overflow=hidden;fillColor=none;top=0;left=0;bottom=0;right=0;pointerEvents=1;" parent="ht5rBl-SjjFZBpGq4qYo-223" vertex="1">
          <mxGeometry x="225" width="25" height="25" as="geometry">
            <mxRectangle width="25" height="25" as="alternateBounds" />
          </mxGeometry>
        </mxCell>
        <mxCell id="ht5rBl-SjjFZBpGq4qYo-234" value="" style="shape=partialRectangle;html=1;whiteSpace=wrap;connectable=0;strokeColor=inherit;overflow=hidden;fillColor=none;top=0;left=0;bottom=0;right=0;pointerEvents=1;" parent="ht5rBl-SjjFZBpGq4qYo-223" vertex="1">
          <mxGeometry x="250" width="25" height="25" as="geometry">
            <mxRectangle width="25" height="25" as="alternateBounds" />
          </mxGeometry>
        </mxCell>
        <mxCell id="ht5rBl-SjjFZBpGq4qYo-235" value="" style="shape=partialRectangle;html=1;whiteSpace=wrap;connectable=0;strokeColor=inherit;overflow=hidden;fillColor=none;top=0;left=0;bottom=0;right=0;pointerEvents=1;" parent="ht5rBl-SjjFZBpGq4qYo-223" vertex="1">
          <mxGeometry x="275" width="25" height="25" as="geometry">
            <mxRectangle width="25" height="25" as="alternateBounds" />
          </mxGeometry>
        </mxCell>
        <mxCell id="ht5rBl-SjjFZBpGq4qYo-236" value="" style="shape=partialRectangle;html=1;whiteSpace=wrap;connectable=0;strokeColor=inherit;overflow=hidden;fillColor=none;top=0;left=0;bottom=0;right=0;pointerEvents=1;" parent="ht5rBl-SjjFZBpGq4qYo-223" vertex="1">
          <mxGeometry x="300" width="25" height="25" as="geometry">
            <mxRectangle width="25" height="25" as="alternateBounds" />
          </mxGeometry>
        </mxCell>
        <mxCell id="ht5rBl-SjjFZBpGq4qYo-237" value="" style="shape=partialRectangle;html=1;whiteSpace=wrap;connectable=0;strokeColor=inherit;overflow=hidden;fillColor=none;top=0;left=0;bottom=0;right=0;pointerEvents=1;" parent="ht5rBl-SjjFZBpGq4qYo-223" vertex="1">
          <mxGeometry x="325" width="25" height="25" as="geometry">
            <mxRectangle width="25" height="25" as="alternateBounds" />
          </mxGeometry>
        </mxCell>
        <mxCell id="ht5rBl-SjjFZBpGq4qYo-238" value="" style="shape=partialRectangle;html=1;whiteSpace=wrap;connectable=0;strokeColor=inherit;overflow=hidden;fillColor=none;top=0;left=0;bottom=0;right=0;pointerEvents=1;" parent="ht5rBl-SjjFZBpGq4qYo-223" vertex="1">
          <mxGeometry x="350" width="25" height="25" as="geometry">
            <mxRectangle width="25" height="25" as="alternateBounds" />
          </mxGeometry>
        </mxCell>
        <mxCell id="ht5rBl-SjjFZBpGq4qYo-239" value="" style="shape=partialRectangle;html=1;whiteSpace=wrap;connectable=0;strokeColor=inherit;overflow=hidden;fillColor=none;top=0;left=0;bottom=0;right=0;pointerEvents=1;" parent="ht5rBl-SjjFZBpGq4qYo-223" vertex="1">
          <mxGeometry x="375" width="25" height="25" as="geometry">
            <mxRectangle width="25" height="25" as="alternateBounds" />
          </mxGeometry>
        </mxCell>
        <mxCell id="ht5rBl-SjjFZBpGq4qYo-240" value="" style="shape=tableRow;horizontal=0;startSize=0;swimlaneHead=0;swimlaneBody=0;strokeColor=inherit;top=0;left=0;bottom=0;right=0;collapsible=0;dropTarget=0;fillColor=none;points=[[0,0.5],[1,0.5]];portConstraint=eastwest;" parent="ht5rBl-SjjFZBpGq4qYo-1" vertex="1">
          <mxGeometry y="345" width="400" height="25" as="geometry" />
        </mxCell>
        <mxCell id="ht5rBl-SjjFZBpGq4qYo-241" value="" style="shape=partialRectangle;html=1;whiteSpace=wrap;connectable=0;strokeColor=inherit;overflow=hidden;fillColor=none;top=0;left=0;bottom=0;right=0;pointerEvents=1;" parent="ht5rBl-SjjFZBpGq4qYo-240" vertex="1">
          <mxGeometry width="25" height="25" as="geometry">
            <mxRectangle width="25" height="25" as="alternateBounds" />
          </mxGeometry>
        </mxCell>
        <mxCell id="ht5rBl-SjjFZBpGq4qYo-242" value="" style="shape=partialRectangle;html=1;whiteSpace=wrap;connectable=0;strokeColor=inherit;overflow=hidden;fillColor=none;top=0;left=0;bottom=0;right=0;pointerEvents=1;" parent="ht5rBl-SjjFZBpGq4qYo-240" vertex="1">
          <mxGeometry x="25" width="25" height="25" as="geometry">
            <mxRectangle width="25" height="25" as="alternateBounds" />
          </mxGeometry>
        </mxCell>
        <mxCell id="ht5rBl-SjjFZBpGq4qYo-243" value="" style="shape=partialRectangle;html=1;whiteSpace=wrap;connectable=0;strokeColor=inherit;overflow=hidden;fillColor=none;top=0;left=0;bottom=0;right=0;pointerEvents=1;" parent="ht5rBl-SjjFZBpGq4qYo-240" vertex="1">
          <mxGeometry x="50" width="25" height="25" as="geometry">
            <mxRectangle width="25" height="25" as="alternateBounds" />
          </mxGeometry>
        </mxCell>
        <mxCell id="ht5rBl-SjjFZBpGq4qYo-244" value="" style="shape=partialRectangle;html=1;whiteSpace=wrap;connectable=0;strokeColor=inherit;overflow=hidden;fillColor=none;top=0;left=0;bottom=0;right=0;pointerEvents=1;" parent="ht5rBl-SjjFZBpGq4qYo-240" vertex="1">
          <mxGeometry x="75" width="25" height="25" as="geometry">
            <mxRectangle width="25" height="25" as="alternateBounds" />
          </mxGeometry>
        </mxCell>
        <mxCell id="ht5rBl-SjjFZBpGq4qYo-245" value="" style="shape=partialRectangle;html=1;whiteSpace=wrap;connectable=0;strokeColor=inherit;overflow=hidden;fillColor=none;top=0;left=0;bottom=0;right=0;pointerEvents=1;" parent="ht5rBl-SjjFZBpGq4qYo-240" vertex="1">
          <mxGeometry x="100" width="25" height="25" as="geometry">
            <mxRectangle width="25" height="25" as="alternateBounds" />
          </mxGeometry>
        </mxCell>
        <mxCell id="ht5rBl-SjjFZBpGq4qYo-246" value="" style="shape=partialRectangle;html=1;whiteSpace=wrap;connectable=0;strokeColor=inherit;overflow=hidden;fillColor=none;top=0;left=0;bottom=0;right=0;pointerEvents=1;" parent="ht5rBl-SjjFZBpGq4qYo-240" vertex="1">
          <mxGeometry x="125" width="25" height="25" as="geometry">
            <mxRectangle width="25" height="25" as="alternateBounds" />
          </mxGeometry>
        </mxCell>
        <mxCell id="ht5rBl-SjjFZBpGq4qYo-247" value="" style="shape=partialRectangle;html=1;whiteSpace=wrap;connectable=0;strokeColor=inherit;overflow=hidden;fillColor=none;top=0;left=0;bottom=0;right=0;pointerEvents=1;" parent="ht5rBl-SjjFZBpGq4qYo-240" vertex="1">
          <mxGeometry x="150" width="25" height="25" as="geometry">
            <mxRectangle width="25" height="25" as="alternateBounds" />
          </mxGeometry>
        </mxCell>
        <mxCell id="ht5rBl-SjjFZBpGq4qYo-248" value="" style="shape=partialRectangle;html=1;whiteSpace=wrap;connectable=0;strokeColor=inherit;overflow=hidden;fillColor=none;top=0;left=0;bottom=0;right=0;pointerEvents=1;" parent="ht5rBl-SjjFZBpGq4qYo-240" vertex="1">
          <mxGeometry x="175" width="25" height="25" as="geometry">
            <mxRectangle width="25" height="25" as="alternateBounds" />
          </mxGeometry>
        </mxCell>
        <mxCell id="ht5rBl-SjjFZBpGq4qYo-249" value="" style="shape=partialRectangle;html=1;whiteSpace=wrap;connectable=0;strokeColor=inherit;overflow=hidden;fillColor=none;top=0;left=0;bottom=0;right=0;pointerEvents=1;" parent="ht5rBl-SjjFZBpGq4qYo-240" vertex="1">
          <mxGeometry x="200" width="25" height="25" as="geometry">
            <mxRectangle width="25" height="25" as="alternateBounds" />
          </mxGeometry>
        </mxCell>
        <mxCell id="ht5rBl-SjjFZBpGq4qYo-250" value="" style="shape=partialRectangle;html=1;whiteSpace=wrap;connectable=0;strokeColor=inherit;overflow=hidden;fillColor=none;top=0;left=0;bottom=0;right=0;pointerEvents=1;" parent="ht5rBl-SjjFZBpGq4qYo-240" vertex="1">
          <mxGeometry x="225" width="25" height="25" as="geometry">
            <mxRectangle width="25" height="25" as="alternateBounds" />
          </mxGeometry>
        </mxCell>
        <mxCell id="ht5rBl-SjjFZBpGq4qYo-251" value="" style="shape=partialRectangle;html=1;whiteSpace=wrap;connectable=0;strokeColor=inherit;overflow=hidden;fillColor=none;top=0;left=0;bottom=0;right=0;pointerEvents=1;" parent="ht5rBl-SjjFZBpGq4qYo-240" vertex="1">
          <mxGeometry x="250" width="25" height="25" as="geometry">
            <mxRectangle width="25" height="25" as="alternateBounds" />
          </mxGeometry>
        </mxCell>
        <mxCell id="ht5rBl-SjjFZBpGq4qYo-252" value="" style="shape=partialRectangle;html=1;whiteSpace=wrap;connectable=0;strokeColor=inherit;overflow=hidden;fillColor=none;top=0;left=0;bottom=0;right=0;pointerEvents=1;" parent="ht5rBl-SjjFZBpGq4qYo-240" vertex="1">
          <mxGeometry x="275" width="25" height="25" as="geometry">
            <mxRectangle width="25" height="25" as="alternateBounds" />
          </mxGeometry>
        </mxCell>
        <mxCell id="ht5rBl-SjjFZBpGq4qYo-253" value="" style="shape=partialRectangle;html=1;whiteSpace=wrap;connectable=0;strokeColor=inherit;overflow=hidden;fillColor=none;top=0;left=0;bottom=0;right=0;pointerEvents=1;" parent="ht5rBl-SjjFZBpGq4qYo-240" vertex="1">
          <mxGeometry x="300" width="25" height="25" as="geometry">
            <mxRectangle width="25" height="25" as="alternateBounds" />
          </mxGeometry>
        </mxCell>
        <mxCell id="ht5rBl-SjjFZBpGq4qYo-254" value="" style="shape=partialRectangle;html=1;whiteSpace=wrap;connectable=0;strokeColor=inherit;overflow=hidden;fillColor=none;top=0;left=0;bottom=0;right=0;pointerEvents=1;" parent="ht5rBl-SjjFZBpGq4qYo-240" vertex="1">
          <mxGeometry x="325" width="25" height="25" as="geometry">
            <mxRectangle width="25" height="25" as="alternateBounds" />
          </mxGeometry>
        </mxCell>
        <mxCell id="ht5rBl-SjjFZBpGq4qYo-255" value="" style="shape=partialRectangle;html=1;whiteSpace=wrap;connectable=0;strokeColor=inherit;overflow=hidden;fillColor=none;top=0;left=0;bottom=0;right=0;pointerEvents=1;" parent="ht5rBl-SjjFZBpGq4qYo-240" vertex="1">
          <mxGeometry x="350" width="25" height="25" as="geometry">
            <mxRectangle width="25" height="25" as="alternateBounds" />
          </mxGeometry>
        </mxCell>
        <mxCell id="ht5rBl-SjjFZBpGq4qYo-256" value="" style="shape=partialRectangle;html=1;whiteSpace=wrap;connectable=0;strokeColor=inherit;overflow=hidden;fillColor=none;top=0;left=0;bottom=0;right=0;pointerEvents=1;" parent="ht5rBl-SjjFZBpGq4qYo-240" vertex="1">
          <mxGeometry x="375" width="25" height="25" as="geometry">
            <mxRectangle width="25" height="25" as="alternateBounds" />
          </mxGeometry>
        </mxCell>
        <mxCell id="ht5rBl-SjjFZBpGq4qYo-257" value="" style="shape=tableRow;horizontal=0;startSize=0;swimlaneHead=0;swimlaneBody=0;strokeColor=inherit;top=0;left=0;bottom=0;right=0;collapsible=0;dropTarget=0;fillColor=none;points=[[0,0.5],[1,0.5]];portConstraint=eastwest;" parent="ht5rBl-SjjFZBpGq4qYo-1" vertex="1">
          <mxGeometry y="370" width="400" height="25" as="geometry" />
        </mxCell>
        <mxCell id="ht5rBl-SjjFZBpGq4qYo-258" value="" style="shape=partialRectangle;html=1;whiteSpace=wrap;connectable=0;strokeColor=inherit;overflow=hidden;fillColor=none;top=0;left=0;bottom=0;right=0;pointerEvents=1;" parent="ht5rBl-SjjFZBpGq4qYo-257" vertex="1">
          <mxGeometry width="25" height="25" as="geometry">
            <mxRectangle width="25" height="25" as="alternateBounds" />
          </mxGeometry>
        </mxCell>
        <mxCell id="ht5rBl-SjjFZBpGq4qYo-259" value="" style="shape=partialRectangle;html=1;whiteSpace=wrap;connectable=0;strokeColor=inherit;overflow=hidden;fillColor=none;top=0;left=0;bottom=0;right=0;pointerEvents=1;" parent="ht5rBl-SjjFZBpGq4qYo-257" vertex="1">
          <mxGeometry x="25" width="25" height="25" as="geometry">
            <mxRectangle width="25" height="25" as="alternateBounds" />
          </mxGeometry>
        </mxCell>
        <mxCell id="ht5rBl-SjjFZBpGq4qYo-260" value="" style="shape=partialRectangle;html=1;whiteSpace=wrap;connectable=0;strokeColor=inherit;overflow=hidden;fillColor=none;top=0;left=0;bottom=0;right=0;pointerEvents=1;" parent="ht5rBl-SjjFZBpGq4qYo-257" vertex="1">
          <mxGeometry x="50" width="25" height="25" as="geometry">
            <mxRectangle width="25" height="25" as="alternateBounds" />
          </mxGeometry>
        </mxCell>
        <mxCell id="ht5rBl-SjjFZBpGq4qYo-261" value="" style="shape=partialRectangle;html=1;whiteSpace=wrap;connectable=0;strokeColor=inherit;overflow=hidden;fillColor=none;top=0;left=0;bottom=0;right=0;pointerEvents=1;" parent="ht5rBl-SjjFZBpGq4qYo-257" vertex="1">
          <mxGeometry x="75" width="25" height="25" as="geometry">
            <mxRectangle width="25" height="25" as="alternateBounds" />
          </mxGeometry>
        </mxCell>
        <mxCell id="ht5rBl-SjjFZBpGq4qYo-262" value="" style="shape=partialRectangle;html=1;whiteSpace=wrap;connectable=0;strokeColor=inherit;overflow=hidden;fillColor=none;top=0;left=0;bottom=0;right=0;pointerEvents=1;" parent="ht5rBl-SjjFZBpGq4qYo-257" vertex="1">
          <mxGeometry x="100" width="25" height="25" as="geometry">
            <mxRectangle width="25" height="25" as="alternateBounds" />
          </mxGeometry>
        </mxCell>
        <mxCell id="ht5rBl-SjjFZBpGq4qYo-263" value="" style="shape=partialRectangle;html=1;whiteSpace=wrap;connectable=0;strokeColor=inherit;overflow=hidden;fillColor=none;top=0;left=0;bottom=0;right=0;pointerEvents=1;" parent="ht5rBl-SjjFZBpGq4qYo-257" vertex="1">
          <mxGeometry x="125" width="25" height="25" as="geometry">
            <mxRectangle width="25" height="25" as="alternateBounds" />
          </mxGeometry>
        </mxCell>
        <mxCell id="ht5rBl-SjjFZBpGq4qYo-264" value="" style="shape=partialRectangle;html=1;whiteSpace=wrap;connectable=0;strokeColor=inherit;overflow=hidden;fillColor=none;top=0;left=0;bottom=0;right=0;pointerEvents=1;" parent="ht5rBl-SjjFZBpGq4qYo-257" vertex="1">
          <mxGeometry x="150" width="25" height="25" as="geometry">
            <mxRectangle width="25" height="25" as="alternateBounds" />
          </mxGeometry>
        </mxCell>
        <mxCell id="ht5rBl-SjjFZBpGq4qYo-265" value="" style="shape=partialRectangle;html=1;whiteSpace=wrap;connectable=0;strokeColor=inherit;overflow=hidden;fillColor=none;top=0;left=0;bottom=0;right=0;pointerEvents=1;" parent="ht5rBl-SjjFZBpGq4qYo-257" vertex="1">
          <mxGeometry x="175" width="25" height="25" as="geometry">
            <mxRectangle width="25" height="25" as="alternateBounds" />
          </mxGeometry>
        </mxCell>
        <mxCell id="ht5rBl-SjjFZBpGq4qYo-266" value="" style="shape=partialRectangle;html=1;whiteSpace=wrap;connectable=0;strokeColor=inherit;overflow=hidden;fillColor=none;top=0;left=0;bottom=0;right=0;pointerEvents=1;" parent="ht5rBl-SjjFZBpGq4qYo-257" vertex="1">
          <mxGeometry x="200" width="25" height="25" as="geometry">
            <mxRectangle width="25" height="25" as="alternateBounds" />
          </mxGeometry>
        </mxCell>
        <mxCell id="ht5rBl-SjjFZBpGq4qYo-267" value="" style="shape=partialRectangle;html=1;whiteSpace=wrap;connectable=0;strokeColor=inherit;overflow=hidden;fillColor=none;top=0;left=0;bottom=0;right=0;pointerEvents=1;" parent="ht5rBl-SjjFZBpGq4qYo-257" vertex="1">
          <mxGeometry x="225" width="25" height="25" as="geometry">
            <mxRectangle width="25" height="25" as="alternateBounds" />
          </mxGeometry>
        </mxCell>
        <mxCell id="ht5rBl-SjjFZBpGq4qYo-268" value="" style="shape=partialRectangle;html=1;whiteSpace=wrap;connectable=0;strokeColor=inherit;overflow=hidden;fillColor=none;top=0;left=0;bottom=0;right=0;pointerEvents=1;" parent="ht5rBl-SjjFZBpGq4qYo-257" vertex="1">
          <mxGeometry x="250" width="25" height="25" as="geometry">
            <mxRectangle width="25" height="25" as="alternateBounds" />
          </mxGeometry>
        </mxCell>
        <mxCell id="ht5rBl-SjjFZBpGq4qYo-269" value="" style="shape=partialRectangle;html=1;whiteSpace=wrap;connectable=0;strokeColor=inherit;overflow=hidden;fillColor=none;top=0;left=0;bottom=0;right=0;pointerEvents=1;" parent="ht5rBl-SjjFZBpGq4qYo-257" vertex="1">
          <mxGeometry x="275" width="25" height="25" as="geometry">
            <mxRectangle width="25" height="25" as="alternateBounds" />
          </mxGeometry>
        </mxCell>
        <mxCell id="ht5rBl-SjjFZBpGq4qYo-270" value="" style="shape=partialRectangle;html=1;whiteSpace=wrap;connectable=0;strokeColor=inherit;overflow=hidden;fillColor=none;top=0;left=0;bottom=0;right=0;pointerEvents=1;" parent="ht5rBl-SjjFZBpGq4qYo-257" vertex="1">
          <mxGeometry x="300" width="25" height="25" as="geometry">
            <mxRectangle width="25" height="25" as="alternateBounds" />
          </mxGeometry>
        </mxCell>
        <mxCell id="ht5rBl-SjjFZBpGq4qYo-271" value="" style="shape=partialRectangle;html=1;whiteSpace=wrap;connectable=0;strokeColor=inherit;overflow=hidden;fillColor=none;top=0;left=0;bottom=0;right=0;pointerEvents=1;" parent="ht5rBl-SjjFZBpGq4qYo-257" vertex="1">
          <mxGeometry x="325" width="25" height="25" as="geometry">
            <mxRectangle width="25" height="25" as="alternateBounds" />
          </mxGeometry>
        </mxCell>
        <mxCell id="ht5rBl-SjjFZBpGq4qYo-272" value="" style="shape=partialRectangle;html=1;whiteSpace=wrap;connectable=0;strokeColor=inherit;overflow=hidden;fillColor=none;top=0;left=0;bottom=0;right=0;pointerEvents=1;" parent="ht5rBl-SjjFZBpGq4qYo-257" vertex="1">
          <mxGeometry x="350" width="25" height="25" as="geometry">
            <mxRectangle width="25" height="25" as="alternateBounds" />
          </mxGeometry>
        </mxCell>
        <mxCell id="ht5rBl-SjjFZBpGq4qYo-273" value="" style="shape=partialRectangle;html=1;whiteSpace=wrap;connectable=0;strokeColor=inherit;overflow=hidden;fillColor=none;top=0;left=0;bottom=0;right=0;pointerEvents=1;" parent="ht5rBl-SjjFZBpGq4qYo-257" vertex="1">
          <mxGeometry x="375" width="25" height="25" as="geometry">
            <mxRectangle width="25" height="25" as="alternateBounds" />
          </mxGeometry>
        </mxCell>
        <mxCell id="ht5rBl-SjjFZBpGq4qYo-275" value="0" style="text;html=1;align=center;verticalAlign=middle;whiteSpace=wrap;rounded=0;" parent="1" vertex="1">
          <mxGeometry x="389" y="2342" width="20" height="17" as="geometry" />
        </mxCell>
        <mxCell id="ht5rBl-SjjFZBpGq4qYo-277" value="1" style="text;html=1;align=center;verticalAlign=middle;whiteSpace=wrap;rounded=0;fontColor=#FF0000;" parent="1" vertex="1">
          <mxGeometry x="416" y="2342" width="16" height="17" as="geometry" />
        </mxCell>
        <mxCell id="ht5rBl-SjjFZBpGq4qYo-278" value="2" style="text;html=1;align=center;verticalAlign=middle;whiteSpace=wrap;rounded=0;" parent="1" vertex="1">
          <mxGeometry x="441" y="2342" width="16" height="17" as="geometry" />
        </mxCell>
        <mxCell id="ht5rBl-SjjFZBpGq4qYo-279" value="3" style="text;html=1;align=center;verticalAlign=middle;whiteSpace=wrap;rounded=0;fontColor=#FF0000;" parent="1" vertex="1">
          <mxGeometry x="466" y="2342" width="16" height="17" as="geometry" />
        </mxCell>
        <mxCell id="ht5rBl-SjjFZBpGq4qYo-280" value="4" style="text;html=1;align=center;verticalAlign=middle;whiteSpace=wrap;rounded=0;fontColor=#FF0000;" parent="1" vertex="1">
          <mxGeometry x="491" y="2342" width="16" height="17" as="geometry" />
        </mxCell>
        <mxCell id="ht5rBl-SjjFZBpGq4qYo-281" value="5" style="text;html=1;align=center;verticalAlign=middle;whiteSpace=wrap;rounded=0;" parent="1" vertex="1">
          <mxGeometry x="516" y="2342" width="16" height="17" as="geometry" />
        </mxCell>
        <mxCell id="ht5rBl-SjjFZBpGq4qYo-282" value="6" style="text;html=1;align=center;verticalAlign=middle;whiteSpace=wrap;rounded=0;" parent="1" vertex="1">
          <mxGeometry x="541" y="2342" width="16" height="17" as="geometry" />
        </mxCell>
        <mxCell id="ht5rBl-SjjFZBpGq4qYo-283" value="7" style="text;html=1;align=center;verticalAlign=middle;whiteSpace=wrap;rounded=0;fontColor=#FF0000;" parent="1" vertex="1">
          <mxGeometry x="566" y="2342" width="16" height="17" as="geometry" />
        </mxCell>
        <mxCell id="ht5rBl-SjjFZBpGq4qYo-284" value="8" style="text;html=1;align=center;verticalAlign=middle;whiteSpace=wrap;rounded=0;fontColor=#FF0000;" parent="1" vertex="1">
          <mxGeometry x="590" y="2342" width="16" height="17" as="geometry" />
        </mxCell>
        <mxCell id="ht5rBl-SjjFZBpGq4qYo-285" value="9" style="text;html=1;align=center;verticalAlign=middle;whiteSpace=wrap;rounded=0;fontColor=#FF0000;" parent="1" vertex="1">
          <mxGeometry x="615" y="2342" width="16" height="17" as="geometry" />
        </mxCell>
        <mxCell id="ht5rBl-SjjFZBpGq4qYo-286" value="10" style="text;html=1;align=center;verticalAlign=middle;whiteSpace=wrap;rounded=0;fontColor=#FF0000;" parent="1" vertex="1">
          <mxGeometry x="640" y="2342" width="16" height="17" as="geometry" />
        </mxCell>
        <mxCell id="ht5rBl-SjjFZBpGq4qYo-287" value="11" style="text;html=1;align=center;verticalAlign=middle;whiteSpace=wrap;rounded=0;fontColor=#FF0000;" parent="1" vertex="1">
          <mxGeometry x="665" y="2342" width="16" height="17" as="geometry" />
        </mxCell>
        <mxCell id="ht5rBl-SjjFZBpGq4qYo-288" value="12" style="text;html=1;align=center;verticalAlign=middle;whiteSpace=wrap;rounded=0;fontColor=#FF0000;" parent="1" vertex="1">
          <mxGeometry x="690" y="2342" width="16" height="17" as="geometry" />
        </mxCell>
        <mxCell id="ht5rBl-SjjFZBpGq4qYo-289" value="13" style="text;html=1;align=center;verticalAlign=middle;whiteSpace=wrap;rounded=0;" parent="1" vertex="1">
          <mxGeometry x="715" y="2342" width="16" height="17" as="geometry" />
        </mxCell>
        <mxCell id="ht5rBl-SjjFZBpGq4qYo-290" value="14" style="text;html=1;align=center;verticalAlign=middle;whiteSpace=wrap;rounded=0;" parent="1" vertex="1">
          <mxGeometry x="740" y="2342" width="16" height="17" as="geometry" />
        </mxCell>
        <mxCell id="ht5rBl-SjjFZBpGq4qYo-291" value="15" style="text;html=1;align=center;verticalAlign=middle;whiteSpace=wrap;rounded=0;" parent="1" vertex="1">
          <mxGeometry x="765" y="2342" width="16" height="17" as="geometry" />
        </mxCell>
        <mxCell id="ht5rBl-SjjFZBpGq4qYo-294" value="0" style="text;html=1;align=center;verticalAlign=middle;whiteSpace=wrap;rounded=0;" parent="1" vertex="1">
          <mxGeometry x="360" y="2367.5" width="16" height="17" as="geometry" />
        </mxCell>
        <mxCell id="ht5rBl-SjjFZBpGq4qYo-295" value="1" style="text;html=1;align=center;verticalAlign=middle;whiteSpace=wrap;rounded=0;fontColor=#FF0000;" parent="1" vertex="1">
          <mxGeometry x="360" y="2392.5" width="16" height="17" as="geometry" />
        </mxCell>
        <mxCell id="ht5rBl-SjjFZBpGq4qYo-296" value="2" style="text;html=1;align=center;verticalAlign=middle;whiteSpace=wrap;rounded=0;" parent="1" vertex="1">
          <mxGeometry x="360" y="2416.5" width="16" height="17" as="geometry" />
        </mxCell>
        <mxCell id="ht5rBl-SjjFZBpGq4qYo-297" value="3" style="text;html=1;align=center;verticalAlign=middle;whiteSpace=wrap;rounded=0;fontColor=#000000;" parent="1" vertex="1">
          <mxGeometry x="360" y="2441.5" width="16" height="17" as="geometry" />
        </mxCell>
        <mxCell id="ht5rBl-SjjFZBpGq4qYo-298" value="4" style="text;html=1;align=center;verticalAlign=middle;whiteSpace=wrap;rounded=0;fontColor=#FF0000;" parent="1" vertex="1">
          <mxGeometry x="360" y="2465.5" width="16" height="17" as="geometry" />
        </mxCell>
        <mxCell id="ht5rBl-SjjFZBpGq4qYo-299" value="5" style="text;html=1;align=center;verticalAlign=middle;whiteSpace=wrap;rounded=0;" parent="1" vertex="1">
          <mxGeometry x="360" y="2490.5" width="16" height="17" as="geometry" />
        </mxCell>
        <mxCell id="ht5rBl-SjjFZBpGq4qYo-300" value="6" style="text;html=1;align=center;verticalAlign=middle;whiteSpace=wrap;rounded=0;fontColor=#FF0000;" parent="1" vertex="1">
          <mxGeometry x="360" y="2515.5" width="16" height="17" as="geometry" />
        </mxCell>
        <mxCell id="ht5rBl-SjjFZBpGq4qYo-301" value="7" style="text;html=1;align=center;verticalAlign=middle;whiteSpace=wrap;rounded=0;fontColor=#000000;" parent="1" vertex="1">
          <mxGeometry x="360" y="2539.5" width="16" height="17" as="geometry" />
        </mxCell>
        <mxCell id="ht5rBl-SjjFZBpGq4qYo-302" value="8" style="text;html=1;align=center;verticalAlign=middle;whiteSpace=wrap;rounded=0;fontColor=#FF0000;" parent="1" vertex="1">
          <mxGeometry x="360" y="2564.5" width="16" height="17" as="geometry" />
        </mxCell>
        <mxCell id="ht5rBl-SjjFZBpGq4qYo-303" value="9" style="text;html=1;align=center;verticalAlign=middle;whiteSpace=wrap;rounded=0;fontColor=#FF0000;" parent="1" vertex="1">
          <mxGeometry x="360" y="2588.5" width="16" height="17" as="geometry" />
        </mxCell>
        <mxCell id="ht5rBl-SjjFZBpGq4qYo-304" value="10" style="text;html=1;align=center;verticalAlign=middle;whiteSpace=wrap;rounded=0;fontColor=#FF0000;" parent="1" vertex="1">
          <mxGeometry x="360" y="2613.5" width="16" height="17" as="geometry" />
        </mxCell>
        <mxCell id="ht5rBl-SjjFZBpGq4qYo-305" value="11" style="text;html=1;align=center;verticalAlign=middle;whiteSpace=wrap;rounded=0;fontColor=#FF0000;" parent="1" vertex="1">
          <mxGeometry x="360" y="2638.5" width="16" height="17" as="geometry" />
        </mxCell>
        <mxCell id="ht5rBl-SjjFZBpGq4qYo-306" value="12" style="text;html=1;align=center;verticalAlign=middle;whiteSpace=wrap;rounded=0;fontColor=#000000;" parent="1" vertex="1">
          <mxGeometry x="360" y="2662.5" width="16" height="17" as="geometry" />
        </mxCell>
        <mxCell id="ht5rBl-SjjFZBpGq4qYo-307" value="13" style="text;html=1;align=center;verticalAlign=middle;whiteSpace=wrap;rounded=0;" parent="1" vertex="1">
          <mxGeometry x="360" y="2687.5" width="16" height="17" as="geometry" />
        </mxCell>
        <mxCell id="ht5rBl-SjjFZBpGq4qYo-308" value="14" style="text;html=1;align=center;verticalAlign=middle;whiteSpace=wrap;rounded=0;" parent="1" vertex="1">
          <mxGeometry x="360" y="2711.5" width="16" height="17" as="geometry" />
        </mxCell>
        <mxCell id="ht5rBl-SjjFZBpGq4qYo-309" value="15" style="text;html=1;align=center;verticalAlign=middle;whiteSpace=wrap;rounded=0;" parent="1" vertex="1">
          <mxGeometry x="360" y="2736.5" width="16" height="17" as="geometry" />
        </mxCell>
        <mxCell id="ht5rBl-SjjFZBpGq4qYo-311" value="" style="shape=table;startSize=0;container=1;collapsible=0;childLayout=tableLayout;" parent="1" vertex="1">
          <mxGeometry x="854" y="2363.5" width="25" height="395" as="geometry" />
        </mxCell>
        <mxCell id="ht5rBl-SjjFZBpGq4qYo-314" value="" style="shape=tableRow;horizontal=0;startSize=0;swimlaneHead=0;swimlaneBody=0;strokeColor=inherit;top=0;left=0;bottom=0;right=0;collapsible=0;dropTarget=0;fillColor=none;points=[[0,0.5],[1,0.5]];portConstraint=eastwest;" parent="ht5rBl-SjjFZBpGq4qYo-311" vertex="1">
          <mxGeometry width="25" height="24" as="geometry" />
        </mxCell>
        <mxCell id="ht5rBl-SjjFZBpGq4qYo-315" value="1" style="shape=partialRectangle;html=1;whiteSpace=wrap;connectable=0;strokeColor=inherit;overflow=hidden;fillColor=none;top=0;left=0;bottom=0;right=0;pointerEvents=1;" parent="ht5rBl-SjjFZBpGq4qYo-314" vertex="1">
          <mxGeometry width="25" height="24" as="geometry">
            <mxRectangle width="25" height="24" as="alternateBounds" />
          </mxGeometry>
        </mxCell>
        <mxCell id="ht5rBl-SjjFZBpGq4qYo-312" value="" style="shape=tableRow;horizontal=0;startSize=0;swimlaneHead=0;swimlaneBody=0;strokeColor=inherit;top=0;left=0;bottom=0;right=0;collapsible=0;dropTarget=0;fillColor=none;points=[[0,0.5],[1,0.5]];portConstraint=eastwest;" parent="ht5rBl-SjjFZBpGq4qYo-311" vertex="1">
          <mxGeometry y="24" width="25" height="25" as="geometry" />
        </mxCell>
        <mxCell id="ht5rBl-SjjFZBpGq4qYo-313" value="1" style="shape=partialRectangle;html=1;whiteSpace=wrap;connectable=0;strokeColor=inherit;overflow=hidden;fillColor=none;top=0;left=0;bottom=0;right=0;pointerEvents=1;" parent="ht5rBl-SjjFZBpGq4qYo-312" vertex="1">
          <mxGeometry width="25" height="25" as="geometry">
            <mxRectangle width="25" height="25" as="alternateBounds" />
          </mxGeometry>
        </mxCell>
        <mxCell id="ht5rBl-SjjFZBpGq4qYo-316" value="" style="shape=tableRow;horizontal=0;startSize=0;swimlaneHead=0;swimlaneBody=0;strokeColor=inherit;top=0;left=0;bottom=0;right=0;collapsible=0;dropTarget=0;fillColor=none;points=[[0,0.5],[1,0.5]];portConstraint=eastwest;" parent="ht5rBl-SjjFZBpGq4qYo-311" vertex="1">
          <mxGeometry y="49" width="25" height="25" as="geometry" />
        </mxCell>
        <mxCell id="ht5rBl-SjjFZBpGq4qYo-317" value="1" style="shape=partialRectangle;html=1;whiteSpace=wrap;connectable=0;strokeColor=inherit;overflow=hidden;fillColor=none;top=0;left=0;bottom=0;right=0;pointerEvents=1;" parent="ht5rBl-SjjFZBpGq4qYo-316" vertex="1">
          <mxGeometry width="25" height="25" as="geometry">
            <mxRectangle width="25" height="25" as="alternateBounds" />
          </mxGeometry>
        </mxCell>
        <mxCell id="ht5rBl-SjjFZBpGq4qYo-318" value="" style="shape=tableRow;horizontal=0;startSize=0;swimlaneHead=0;swimlaneBody=0;strokeColor=inherit;top=0;left=0;bottom=0;right=0;collapsible=0;dropTarget=0;fillColor=none;points=[[0,0.5],[1,0.5]];portConstraint=eastwest;" parent="ht5rBl-SjjFZBpGq4qYo-311" vertex="1">
          <mxGeometry y="74" width="25" height="25" as="geometry" />
        </mxCell>
        <mxCell id="ht5rBl-SjjFZBpGq4qYo-319" value="1" style="shape=partialRectangle;html=1;whiteSpace=wrap;connectable=0;strokeColor=inherit;overflow=hidden;fillColor=none;top=0;left=0;bottom=0;right=0;pointerEvents=1;" parent="ht5rBl-SjjFZBpGq4qYo-318" vertex="1">
          <mxGeometry width="25" height="25" as="geometry">
            <mxRectangle width="25" height="25" as="alternateBounds" />
          </mxGeometry>
        </mxCell>
        <mxCell id="ht5rBl-SjjFZBpGq4qYo-320" value="" style="shape=tableRow;horizontal=0;startSize=0;swimlaneHead=0;swimlaneBody=0;strokeColor=inherit;top=0;left=0;bottom=0;right=0;collapsible=0;dropTarget=0;fillColor=none;points=[[0,0.5],[1,0.5]];portConstraint=eastwest;" parent="ht5rBl-SjjFZBpGq4qYo-311" vertex="1">
          <mxGeometry y="99" width="25" height="24" as="geometry" />
        </mxCell>
        <mxCell id="ht5rBl-SjjFZBpGq4qYo-321" value="1" style="shape=partialRectangle;html=1;whiteSpace=wrap;connectable=0;strokeColor=inherit;overflow=hidden;fillColor=none;top=0;left=0;bottom=0;right=0;pointerEvents=1;" parent="ht5rBl-SjjFZBpGq4qYo-320" vertex="1">
          <mxGeometry width="25" height="24" as="geometry">
            <mxRectangle width="25" height="24" as="alternateBounds" />
          </mxGeometry>
        </mxCell>
        <mxCell id="ht5rBl-SjjFZBpGq4qYo-322" value="" style="shape=tableRow;horizontal=0;startSize=0;swimlaneHead=0;swimlaneBody=0;strokeColor=inherit;top=0;left=0;bottom=0;right=0;collapsible=0;dropTarget=0;fillColor=none;points=[[0,0.5],[1,0.5]];portConstraint=eastwest;" parent="ht5rBl-SjjFZBpGq4qYo-311" vertex="1">
          <mxGeometry y="123" width="25" height="25" as="geometry" />
        </mxCell>
        <mxCell id="ht5rBl-SjjFZBpGq4qYo-323" value="1" style="shape=partialRectangle;html=1;whiteSpace=wrap;connectable=0;strokeColor=inherit;overflow=hidden;fillColor=none;top=0;left=0;bottom=0;right=0;pointerEvents=1;" parent="ht5rBl-SjjFZBpGq4qYo-322" vertex="1">
          <mxGeometry width="25" height="25" as="geometry">
            <mxRectangle width="25" height="25" as="alternateBounds" />
          </mxGeometry>
        </mxCell>
        <mxCell id="ht5rBl-SjjFZBpGq4qYo-324" value="" style="shape=tableRow;horizontal=0;startSize=0;swimlaneHead=0;swimlaneBody=0;strokeColor=inherit;top=0;left=0;bottom=0;right=0;collapsible=0;dropTarget=0;fillColor=none;points=[[0,0.5],[1,0.5]];portConstraint=eastwest;" parent="ht5rBl-SjjFZBpGq4qYo-311" vertex="1">
          <mxGeometry y="148" width="25" height="25" as="geometry" />
        </mxCell>
        <mxCell id="ht5rBl-SjjFZBpGq4qYo-325" value="1" style="shape=partialRectangle;html=1;whiteSpace=wrap;connectable=0;strokeColor=inherit;overflow=hidden;fillColor=none;top=0;left=0;bottom=0;right=0;pointerEvents=1;" parent="ht5rBl-SjjFZBpGq4qYo-324" vertex="1">
          <mxGeometry width="25" height="25" as="geometry">
            <mxRectangle width="25" height="25" as="alternateBounds" />
          </mxGeometry>
        </mxCell>
        <mxCell id="ht5rBl-SjjFZBpGq4qYo-326" value="" style="shape=tableRow;horizontal=0;startSize=0;swimlaneHead=0;swimlaneBody=0;strokeColor=inherit;top=0;left=0;bottom=0;right=0;collapsible=0;dropTarget=0;fillColor=none;points=[[0,0.5],[1,0.5]];portConstraint=eastwest;" parent="ht5rBl-SjjFZBpGq4qYo-311" vertex="1">
          <mxGeometry y="173" width="25" height="25" as="geometry" />
        </mxCell>
        <mxCell id="ht5rBl-SjjFZBpGq4qYo-327" value="1" style="shape=partialRectangle;html=1;whiteSpace=wrap;connectable=0;strokeColor=inherit;overflow=hidden;fillColor=none;top=0;left=0;bottom=0;right=0;pointerEvents=1;" parent="ht5rBl-SjjFZBpGq4qYo-326" vertex="1">
          <mxGeometry width="25" height="25" as="geometry">
            <mxRectangle width="25" height="25" as="alternateBounds" />
          </mxGeometry>
        </mxCell>
        <mxCell id="ht5rBl-SjjFZBpGq4qYo-328" value="" style="shape=tableRow;horizontal=0;startSize=0;swimlaneHead=0;swimlaneBody=0;strokeColor=inherit;top=0;left=0;bottom=0;right=0;collapsible=0;dropTarget=0;fillColor=none;points=[[0,0.5],[1,0.5]];portConstraint=eastwest;" parent="ht5rBl-SjjFZBpGq4qYo-311" vertex="1">
          <mxGeometry y="198" width="25" height="24" as="geometry" />
        </mxCell>
        <mxCell id="ht5rBl-SjjFZBpGq4qYo-329" value="1" style="shape=partialRectangle;html=1;whiteSpace=wrap;connectable=0;strokeColor=inherit;overflow=hidden;fillColor=none;top=0;left=0;bottom=0;right=0;pointerEvents=1;" parent="ht5rBl-SjjFZBpGq4qYo-328" vertex="1">
          <mxGeometry width="25" height="24" as="geometry">
            <mxRectangle width="25" height="24" as="alternateBounds" />
          </mxGeometry>
        </mxCell>
        <mxCell id="ht5rBl-SjjFZBpGq4qYo-330" value="" style="shape=tableRow;horizontal=0;startSize=0;swimlaneHead=0;swimlaneBody=0;strokeColor=inherit;top=0;left=0;bottom=0;right=0;collapsible=0;dropTarget=0;fillColor=none;points=[[0,0.5],[1,0.5]];portConstraint=eastwest;" parent="ht5rBl-SjjFZBpGq4qYo-311" vertex="1">
          <mxGeometry y="222" width="25" height="25" as="geometry" />
        </mxCell>
        <mxCell id="ht5rBl-SjjFZBpGq4qYo-331" value="1" style="shape=partialRectangle;html=1;whiteSpace=wrap;connectable=0;strokeColor=inherit;overflow=hidden;fillColor=none;top=0;left=0;bottom=0;right=0;pointerEvents=1;" parent="ht5rBl-SjjFZBpGq4qYo-330" vertex="1">
          <mxGeometry width="25" height="25" as="geometry">
            <mxRectangle width="25" height="25" as="alternateBounds" />
          </mxGeometry>
        </mxCell>
        <mxCell id="ht5rBl-SjjFZBpGq4qYo-332" value="" style="shape=tableRow;horizontal=0;startSize=0;swimlaneHead=0;swimlaneBody=0;strokeColor=inherit;top=0;left=0;bottom=0;right=0;collapsible=0;dropTarget=0;fillColor=none;points=[[0,0.5],[1,0.5]];portConstraint=eastwest;" parent="ht5rBl-SjjFZBpGq4qYo-311" vertex="1">
          <mxGeometry y="247" width="25" height="25" as="geometry" />
        </mxCell>
        <mxCell id="ht5rBl-SjjFZBpGq4qYo-333" value="1" style="shape=partialRectangle;html=1;whiteSpace=wrap;connectable=0;strokeColor=inherit;overflow=hidden;fillColor=none;top=0;left=0;bottom=0;right=0;pointerEvents=1;" parent="ht5rBl-SjjFZBpGq4qYo-332" vertex="1">
          <mxGeometry width="25" height="25" as="geometry">
            <mxRectangle width="25" height="25" as="alternateBounds" />
          </mxGeometry>
        </mxCell>
        <mxCell id="ht5rBl-SjjFZBpGq4qYo-334" value="" style="shape=tableRow;horizontal=0;startSize=0;swimlaneHead=0;swimlaneBody=0;strokeColor=inherit;top=0;left=0;bottom=0;right=0;collapsible=0;dropTarget=0;fillColor=none;points=[[0,0.5],[1,0.5]];portConstraint=eastwest;" parent="ht5rBl-SjjFZBpGq4qYo-311" vertex="1">
          <mxGeometry y="272" width="25" height="24" as="geometry" />
        </mxCell>
        <mxCell id="ht5rBl-SjjFZBpGq4qYo-335" value="1" style="shape=partialRectangle;html=1;whiteSpace=wrap;connectable=0;strokeColor=inherit;overflow=hidden;fillColor=none;top=0;left=0;bottom=0;right=0;pointerEvents=1;" parent="ht5rBl-SjjFZBpGq4qYo-334" vertex="1">
          <mxGeometry width="25" height="24" as="geometry">
            <mxRectangle width="25" height="24" as="alternateBounds" />
          </mxGeometry>
        </mxCell>
        <mxCell id="ht5rBl-SjjFZBpGq4qYo-336" value="" style="shape=tableRow;horizontal=0;startSize=0;swimlaneHead=0;swimlaneBody=0;strokeColor=inherit;top=0;left=0;bottom=0;right=0;collapsible=0;dropTarget=0;fillColor=none;points=[[0,0.5],[1,0.5]];portConstraint=eastwest;" parent="ht5rBl-SjjFZBpGq4qYo-311" vertex="1">
          <mxGeometry y="296" width="25" height="25" as="geometry" />
        </mxCell>
        <mxCell id="ht5rBl-SjjFZBpGq4qYo-337" value="1" style="shape=partialRectangle;html=1;whiteSpace=wrap;connectable=0;strokeColor=inherit;overflow=hidden;fillColor=none;top=0;left=0;bottom=0;right=0;pointerEvents=1;" parent="ht5rBl-SjjFZBpGq4qYo-336" vertex="1">
          <mxGeometry width="25" height="25" as="geometry">
            <mxRectangle width="25" height="25" as="alternateBounds" />
          </mxGeometry>
        </mxCell>
        <mxCell id="ht5rBl-SjjFZBpGq4qYo-338" value="" style="shape=tableRow;horizontal=0;startSize=0;swimlaneHead=0;swimlaneBody=0;strokeColor=inherit;top=0;left=0;bottom=0;right=0;collapsible=0;dropTarget=0;fillColor=none;points=[[0,0.5],[1,0.5]];portConstraint=eastwest;" parent="ht5rBl-SjjFZBpGq4qYo-311" vertex="1">
          <mxGeometry y="321" width="25" height="25" as="geometry" />
        </mxCell>
        <mxCell id="ht5rBl-SjjFZBpGq4qYo-339" value="1" style="shape=partialRectangle;html=1;whiteSpace=wrap;connectable=0;strokeColor=inherit;overflow=hidden;fillColor=none;top=0;left=0;bottom=0;right=0;pointerEvents=1;" parent="ht5rBl-SjjFZBpGq4qYo-338" vertex="1">
          <mxGeometry width="25" height="25" as="geometry">
            <mxRectangle width="25" height="25" as="alternateBounds" />
          </mxGeometry>
        </mxCell>
        <mxCell id="ht5rBl-SjjFZBpGq4qYo-340" value="" style="shape=tableRow;horizontal=0;startSize=0;swimlaneHead=0;swimlaneBody=0;strokeColor=inherit;top=0;left=0;bottom=0;right=0;collapsible=0;dropTarget=0;fillColor=none;points=[[0,0.5],[1,0.5]];portConstraint=eastwest;" parent="ht5rBl-SjjFZBpGq4qYo-311" vertex="1">
          <mxGeometry y="346" width="25" height="24" as="geometry" />
        </mxCell>
        <mxCell id="ht5rBl-SjjFZBpGq4qYo-341" value="1" style="shape=partialRectangle;html=1;whiteSpace=wrap;connectable=0;strokeColor=inherit;overflow=hidden;fillColor=none;top=0;left=0;bottom=0;right=0;pointerEvents=1;" parent="ht5rBl-SjjFZBpGq4qYo-340" vertex="1">
          <mxGeometry width="25" height="24" as="geometry">
            <mxRectangle width="25" height="24" as="alternateBounds" />
          </mxGeometry>
        </mxCell>
        <mxCell id="ht5rBl-SjjFZBpGq4qYo-342" value="" style="shape=tableRow;horizontal=0;startSize=0;swimlaneHead=0;swimlaneBody=0;strokeColor=inherit;top=0;left=0;bottom=0;right=0;collapsible=0;dropTarget=0;fillColor=none;points=[[0,0.5],[1,0.5]];portConstraint=eastwest;" parent="ht5rBl-SjjFZBpGq4qYo-311" vertex="1">
          <mxGeometry y="370" width="25" height="25" as="geometry" />
        </mxCell>
        <mxCell id="ht5rBl-SjjFZBpGq4qYo-343" value="1" style="shape=partialRectangle;html=1;whiteSpace=wrap;connectable=0;strokeColor=inherit;overflow=hidden;fillColor=none;top=0;left=0;bottom=0;right=0;pointerEvents=1;" parent="ht5rBl-SjjFZBpGq4qYo-342" vertex="1">
          <mxGeometry width="25" height="25" as="geometry">
            <mxRectangle width="25" height="25" as="alternateBounds" />
          </mxGeometry>
        </mxCell>
        <mxCell id="ht5rBl-SjjFZBpGq4qYo-344" value="A" style="text;html=1;align=center;verticalAlign=middle;whiteSpace=wrap;rounded=0;" parent="1" vertex="1">
          <mxGeometry x="546" y="2776" width="60" height="30" as="geometry" />
        </mxCell>
        <mxCell id="ht5rBl-SjjFZBpGq4qYo-346" value="B" style="text;html=1;align=center;verticalAlign=middle;whiteSpace=wrap;rounded=0;" parent="1" vertex="1">
          <mxGeometry x="836.5" y="2776" width="60" height="30" as="geometry" />
        </mxCell>
        <mxCell id="ht5rBl-SjjFZBpGq4qYo-347" value="x" style="text;html=1;align=center;verticalAlign=middle;whiteSpace=wrap;rounded=0;fontSize=20;" parent="1" vertex="1">
          <mxGeometry x="790" y="2542" width="60" height="30" as="geometry" />
        </mxCell>
        <mxCell id="ht5rBl-SjjFZBpGq4qYo-349" value="=" style="text;html=1;align=center;verticalAlign=middle;whiteSpace=wrap;rounded=0;fontSize=20;" parent="1" vertex="1">
          <mxGeometry x="896.5" y="2542" width="60" height="30" as="geometry" />
        </mxCell>
        <mxCell id="ht5rBl-SjjFZBpGq4qYo-350" value="" style="shape=table;startSize=0;container=1;collapsible=0;childLayout=tableLayout;" parent="1" vertex="1">
          <mxGeometry x="971.5" y="2363.5" width="25" height="395" as="geometry" />
        </mxCell>
        <mxCell id="ht5rBl-SjjFZBpGq4qYo-351" value="" style="shape=tableRow;horizontal=0;startSize=0;swimlaneHead=0;swimlaneBody=0;strokeColor=inherit;top=0;left=0;bottom=0;right=0;collapsible=0;dropTarget=0;fillColor=none;points=[[0,0.5],[1,0.5]];portConstraint=eastwest;" parent="ht5rBl-SjjFZBpGq4qYo-350" vertex="1">
          <mxGeometry width="25" height="24" as="geometry" />
        </mxCell>
        <mxCell id="ht5rBl-SjjFZBpGq4qYo-352" value="0" style="shape=partialRectangle;html=1;whiteSpace=wrap;connectable=0;strokeColor=inherit;overflow=hidden;fillColor=none;top=0;left=0;bottom=0;right=0;pointerEvents=1;" parent="ht5rBl-SjjFZBpGq4qYo-351" vertex="1">
          <mxGeometry width="25" height="24" as="geometry">
            <mxRectangle width="25" height="24" as="alternateBounds" />
          </mxGeometry>
        </mxCell>
        <mxCell id="ht5rBl-SjjFZBpGq4qYo-353" value="" style="shape=tableRow;horizontal=0;startSize=0;swimlaneHead=0;swimlaneBody=0;strokeColor=inherit;top=0;left=0;bottom=0;right=0;collapsible=0;dropTarget=0;fillColor=none;points=[[0,0.5],[1,0.5]];portConstraint=eastwest;" parent="ht5rBl-SjjFZBpGq4qYo-350" vertex="1">
          <mxGeometry y="24" width="25" height="25" as="geometry" />
        </mxCell>
        <mxCell id="ht5rBl-SjjFZBpGq4qYo-354" value="2" style="shape=partialRectangle;html=1;whiteSpace=wrap;connectable=0;strokeColor=inherit;overflow=hidden;fillColor=none;top=0;left=0;bottom=0;right=0;pointerEvents=1;" parent="ht5rBl-SjjFZBpGq4qYo-353" vertex="1">
          <mxGeometry width="25" height="25" as="geometry">
            <mxRectangle width="25" height="25" as="alternateBounds" />
          </mxGeometry>
        </mxCell>
        <mxCell id="ht5rBl-SjjFZBpGq4qYo-355" value="" style="shape=tableRow;horizontal=0;startSize=0;swimlaneHead=0;swimlaneBody=0;strokeColor=inherit;top=0;left=0;bottom=0;right=0;collapsible=0;dropTarget=0;fillColor=none;points=[[0,0.5],[1,0.5]];portConstraint=eastwest;" parent="ht5rBl-SjjFZBpGq4qYo-350" vertex="1">
          <mxGeometry y="49" width="25" height="25" as="geometry" />
        </mxCell>
        <mxCell id="ht5rBl-SjjFZBpGq4qYo-356" value="0" style="shape=partialRectangle;html=1;whiteSpace=wrap;connectable=0;strokeColor=inherit;overflow=hidden;fillColor=none;top=0;left=0;bottom=0;right=0;pointerEvents=1;" parent="ht5rBl-SjjFZBpGq4qYo-355" vertex="1">
          <mxGeometry width="25" height="25" as="geometry">
            <mxRectangle width="25" height="25" as="alternateBounds" />
          </mxGeometry>
        </mxCell>
        <mxCell id="ht5rBl-SjjFZBpGq4qYo-357" value="" style="shape=tableRow;horizontal=0;startSize=0;swimlaneHead=0;swimlaneBody=0;strokeColor=inherit;top=0;left=0;bottom=0;right=0;collapsible=0;dropTarget=0;fillColor=none;points=[[0,0.5],[1,0.5]];portConstraint=eastwest;" parent="ht5rBl-SjjFZBpGq4qYo-350" vertex="1">
          <mxGeometry y="74" width="25" height="25" as="geometry" />
        </mxCell>
        <mxCell id="ht5rBl-SjjFZBpGq4qYo-358" value="0" style="shape=partialRectangle;html=1;whiteSpace=wrap;connectable=0;strokeColor=inherit;overflow=hidden;fillColor=none;top=0;left=0;bottom=0;right=0;pointerEvents=1;" parent="ht5rBl-SjjFZBpGq4qYo-357" vertex="1">
          <mxGeometry width="25" height="25" as="geometry">
            <mxRectangle width="25" height="25" as="alternateBounds" />
          </mxGeometry>
        </mxCell>
        <mxCell id="ht5rBl-SjjFZBpGq4qYo-359" value="" style="shape=tableRow;horizontal=0;startSize=0;swimlaneHead=0;swimlaneBody=0;strokeColor=inherit;top=0;left=0;bottom=0;right=0;collapsible=0;dropTarget=0;fillColor=none;points=[[0,0.5],[1,0.5]];portConstraint=eastwest;" parent="ht5rBl-SjjFZBpGq4qYo-350" vertex="1">
          <mxGeometry y="99" width="25" height="24" as="geometry" />
        </mxCell>
        <mxCell id="ht5rBl-SjjFZBpGq4qYo-360" value="2" style="shape=partialRectangle;html=1;whiteSpace=wrap;connectable=0;strokeColor=inherit;overflow=hidden;fillColor=none;top=0;left=0;bottom=0;right=0;pointerEvents=1;" parent="ht5rBl-SjjFZBpGq4qYo-359" vertex="1">
          <mxGeometry width="25" height="24" as="geometry">
            <mxRectangle width="25" height="24" as="alternateBounds" />
          </mxGeometry>
        </mxCell>
        <mxCell id="ht5rBl-SjjFZBpGq4qYo-361" value="" style="shape=tableRow;horizontal=0;startSize=0;swimlaneHead=0;swimlaneBody=0;strokeColor=inherit;top=0;left=0;bottom=0;right=0;collapsible=0;dropTarget=0;fillColor=none;points=[[0,0.5],[1,0.5]];portConstraint=eastwest;" parent="ht5rBl-SjjFZBpGq4qYo-350" vertex="1">
          <mxGeometry y="123" width="25" height="25" as="geometry" />
        </mxCell>
        <mxCell id="ht5rBl-SjjFZBpGq4qYo-362" value="0" style="shape=partialRectangle;html=1;whiteSpace=wrap;connectable=0;strokeColor=inherit;overflow=hidden;fillColor=none;top=0;left=0;bottom=0;right=0;pointerEvents=1;" parent="ht5rBl-SjjFZBpGq4qYo-361" vertex="1">
          <mxGeometry width="25" height="25" as="geometry">
            <mxRectangle width="25" height="25" as="alternateBounds" />
          </mxGeometry>
        </mxCell>
        <mxCell id="ht5rBl-SjjFZBpGq4qYo-363" value="" style="shape=tableRow;horizontal=0;startSize=0;swimlaneHead=0;swimlaneBody=0;strokeColor=inherit;top=0;left=0;bottom=0;right=0;collapsible=0;dropTarget=0;fillColor=none;points=[[0,0.5],[1,0.5]];portConstraint=eastwest;" parent="ht5rBl-SjjFZBpGq4qYo-350" vertex="1">
          <mxGeometry y="148" width="25" height="25" as="geometry" />
        </mxCell>
        <mxCell id="ht5rBl-SjjFZBpGq4qYo-364" value="1" style="shape=partialRectangle;html=1;whiteSpace=wrap;connectable=0;strokeColor=inherit;overflow=hidden;fillColor=none;top=0;left=0;bottom=0;right=0;pointerEvents=1;" parent="ht5rBl-SjjFZBpGq4qYo-363" vertex="1">
          <mxGeometry width="25" height="25" as="geometry">
            <mxRectangle width="25" height="25" as="alternateBounds" />
          </mxGeometry>
        </mxCell>
        <mxCell id="ht5rBl-SjjFZBpGq4qYo-365" value="" style="shape=tableRow;horizontal=0;startSize=0;swimlaneHead=0;swimlaneBody=0;strokeColor=inherit;top=0;left=0;bottom=0;right=0;collapsible=0;dropTarget=0;fillColor=none;points=[[0,0.5],[1,0.5]];portConstraint=eastwest;" parent="ht5rBl-SjjFZBpGq4qYo-350" vertex="1">
          <mxGeometry y="173" width="25" height="25" as="geometry" />
        </mxCell>
        <mxCell id="ht5rBl-SjjFZBpGq4qYo-366" value="0" style="shape=partialRectangle;html=1;whiteSpace=wrap;connectable=0;strokeColor=inherit;overflow=hidden;fillColor=none;top=0;left=0;bottom=0;right=0;pointerEvents=1;" parent="ht5rBl-SjjFZBpGq4qYo-365" vertex="1">
          <mxGeometry width="25" height="25" as="geometry">
            <mxRectangle width="25" height="25" as="alternateBounds" />
          </mxGeometry>
        </mxCell>
        <mxCell id="ht5rBl-SjjFZBpGq4qYo-367" value="" style="shape=tableRow;horizontal=0;startSize=0;swimlaneHead=0;swimlaneBody=0;strokeColor=inherit;top=0;left=0;bottom=0;right=0;collapsible=0;dropTarget=0;fillColor=none;points=[[0,0.5],[1,0.5]];portConstraint=eastwest;" parent="ht5rBl-SjjFZBpGq4qYo-350" vertex="1">
          <mxGeometry y="198" width="25" height="24" as="geometry" />
        </mxCell>
        <mxCell id="ht5rBl-SjjFZBpGq4qYo-368" value="1" style="shape=partialRectangle;html=1;whiteSpace=wrap;connectable=0;strokeColor=inherit;overflow=hidden;fillColor=none;top=0;left=0;bottom=0;right=0;pointerEvents=1;" parent="ht5rBl-SjjFZBpGq4qYo-367" vertex="1">
          <mxGeometry width="25" height="24" as="geometry">
            <mxRectangle width="25" height="24" as="alternateBounds" />
          </mxGeometry>
        </mxCell>
        <mxCell id="ht5rBl-SjjFZBpGq4qYo-369" value="" style="shape=tableRow;horizontal=0;startSize=0;swimlaneHead=0;swimlaneBody=0;strokeColor=inherit;top=0;left=0;bottom=0;right=0;collapsible=0;dropTarget=0;fillColor=none;points=[[0,0.5],[1,0.5]];portConstraint=eastwest;" parent="ht5rBl-SjjFZBpGq4qYo-350" vertex="1">
          <mxGeometry y="222" width="25" height="25" as="geometry" />
        </mxCell>
        <mxCell id="ht5rBl-SjjFZBpGq4qYo-370" value="1" style="shape=partialRectangle;html=1;whiteSpace=wrap;connectable=0;strokeColor=inherit;overflow=hidden;fillColor=none;top=0;left=0;bottom=0;right=0;pointerEvents=1;" parent="ht5rBl-SjjFZBpGq4qYo-369" vertex="1">
          <mxGeometry width="25" height="25" as="geometry">
            <mxRectangle width="25" height="25" as="alternateBounds" />
          </mxGeometry>
        </mxCell>
        <mxCell id="ht5rBl-SjjFZBpGq4qYo-371" value="" style="shape=tableRow;horizontal=0;startSize=0;swimlaneHead=0;swimlaneBody=0;strokeColor=inherit;top=0;left=0;bottom=0;right=0;collapsible=0;dropTarget=0;fillColor=none;points=[[0,0.5],[1,0.5]];portConstraint=eastwest;" parent="ht5rBl-SjjFZBpGq4qYo-350" vertex="1">
          <mxGeometry y="247" width="25" height="25" as="geometry" />
        </mxCell>
        <mxCell id="ht5rBl-SjjFZBpGq4qYo-372" value="1" style="shape=partialRectangle;html=1;whiteSpace=wrap;connectable=0;strokeColor=inherit;overflow=hidden;fillColor=none;top=0;left=0;bottom=0;right=0;pointerEvents=1;" parent="ht5rBl-SjjFZBpGq4qYo-371" vertex="1">
          <mxGeometry width="25" height="25" as="geometry">
            <mxRectangle width="25" height="25" as="alternateBounds" />
          </mxGeometry>
        </mxCell>
        <mxCell id="ht5rBl-SjjFZBpGq4qYo-373" value="" style="shape=tableRow;horizontal=0;startSize=0;swimlaneHead=0;swimlaneBody=0;strokeColor=inherit;top=0;left=0;bottom=0;right=0;collapsible=0;dropTarget=0;fillColor=none;points=[[0,0.5],[1,0.5]];portConstraint=eastwest;" parent="ht5rBl-SjjFZBpGq4qYo-350" vertex="1">
          <mxGeometry y="272" width="25" height="24" as="geometry" />
        </mxCell>
        <mxCell id="ht5rBl-SjjFZBpGq4qYo-374" value="1" style="shape=partialRectangle;html=1;whiteSpace=wrap;connectable=0;strokeColor=inherit;overflow=hidden;fillColor=none;top=0;left=0;bottom=0;right=0;pointerEvents=1;" parent="ht5rBl-SjjFZBpGq4qYo-373" vertex="1">
          <mxGeometry width="25" height="24" as="geometry">
            <mxRectangle width="25" height="24" as="alternateBounds" />
          </mxGeometry>
        </mxCell>
        <mxCell id="ht5rBl-SjjFZBpGq4qYo-375" value="" style="shape=tableRow;horizontal=0;startSize=0;swimlaneHead=0;swimlaneBody=0;strokeColor=inherit;top=0;left=0;bottom=0;right=0;collapsible=0;dropTarget=0;fillColor=none;points=[[0,0.5],[1,0.5]];portConstraint=eastwest;" parent="ht5rBl-SjjFZBpGq4qYo-350" vertex="1">
          <mxGeometry y="296" width="25" height="25" as="geometry" />
        </mxCell>
        <mxCell id="ht5rBl-SjjFZBpGq4qYo-376" value="0" style="shape=partialRectangle;html=1;whiteSpace=wrap;connectable=0;strokeColor=inherit;overflow=hidden;fillColor=none;top=0;left=0;bottom=0;right=0;pointerEvents=1;" parent="ht5rBl-SjjFZBpGq4qYo-375" vertex="1">
          <mxGeometry width="25" height="25" as="geometry">
            <mxRectangle width="25" height="25" as="alternateBounds" />
          </mxGeometry>
        </mxCell>
        <mxCell id="ht5rBl-SjjFZBpGq4qYo-377" value="" style="shape=tableRow;horizontal=0;startSize=0;swimlaneHead=0;swimlaneBody=0;strokeColor=inherit;top=0;left=0;bottom=0;right=0;collapsible=0;dropTarget=0;fillColor=none;points=[[0,0.5],[1,0.5]];portConstraint=eastwest;" parent="ht5rBl-SjjFZBpGq4qYo-350" vertex="1">
          <mxGeometry y="321" width="25" height="25" as="geometry" />
        </mxCell>
        <mxCell id="ht5rBl-SjjFZBpGq4qYo-378" value="0" style="shape=partialRectangle;html=1;whiteSpace=wrap;connectable=0;strokeColor=inherit;overflow=hidden;fillColor=none;top=0;left=0;bottom=0;right=0;pointerEvents=1;" parent="ht5rBl-SjjFZBpGq4qYo-377" vertex="1">
          <mxGeometry width="25" height="25" as="geometry">
            <mxRectangle width="25" height="25" as="alternateBounds" />
          </mxGeometry>
        </mxCell>
        <mxCell id="ht5rBl-SjjFZBpGq4qYo-379" value="" style="shape=tableRow;horizontal=0;startSize=0;swimlaneHead=0;swimlaneBody=0;strokeColor=inherit;top=0;left=0;bottom=0;right=0;collapsible=0;dropTarget=0;fillColor=none;points=[[0,0.5],[1,0.5]];portConstraint=eastwest;" parent="ht5rBl-SjjFZBpGq4qYo-350" vertex="1">
          <mxGeometry y="346" width="25" height="24" as="geometry" />
        </mxCell>
        <mxCell id="ht5rBl-SjjFZBpGq4qYo-380" value="0" style="shape=partialRectangle;html=1;whiteSpace=wrap;connectable=0;strokeColor=inherit;overflow=hidden;fillColor=none;top=0;left=0;bottom=0;right=0;pointerEvents=1;" parent="ht5rBl-SjjFZBpGq4qYo-379" vertex="1">
          <mxGeometry width="25" height="24" as="geometry">
            <mxRectangle width="25" height="24" as="alternateBounds" />
          </mxGeometry>
        </mxCell>
        <mxCell id="ht5rBl-SjjFZBpGq4qYo-381" value="" style="shape=tableRow;horizontal=0;startSize=0;swimlaneHead=0;swimlaneBody=0;strokeColor=inherit;top=0;left=0;bottom=0;right=0;collapsible=0;dropTarget=0;fillColor=none;points=[[0,0.5],[1,0.5]];portConstraint=eastwest;" parent="ht5rBl-SjjFZBpGq4qYo-350" vertex="1">
          <mxGeometry y="370" width="25" height="25" as="geometry" />
        </mxCell>
        <mxCell id="ht5rBl-SjjFZBpGq4qYo-382" value="0" style="shape=partialRectangle;html=1;whiteSpace=wrap;connectable=0;strokeColor=inherit;overflow=hidden;fillColor=none;top=0;left=0;bottom=0;right=0;pointerEvents=1;" parent="ht5rBl-SjjFZBpGq4qYo-381" vertex="1">
          <mxGeometry width="25" height="25" as="geometry">
            <mxRectangle width="25" height="25" as="alternateBounds" />
          </mxGeometry>
        </mxCell>
        <mxCell id="ht5rBl-SjjFZBpGq4qYo-383" value="C" style="text;html=1;align=center;verticalAlign=middle;whiteSpace=wrap;rounded=0;" parent="1" vertex="1">
          <mxGeometry x="954" y="2776" width="60" height="30" as="geometry" />
        </mxCell>
        <mxCell id="pSdvG8endxZIBJAOiVjn-1" value="0" style="ellipse;whiteSpace=wrap;html=1;aspect=fixed;" vertex="1" parent="1">
          <mxGeometry x="538" y="2957" width="19" height="19" as="geometry" />
        </mxCell>
        <mxCell id="pSdvG8endxZIBJAOiVjn-2" value="1" style="ellipse;whiteSpace=wrap;html=1;aspect=fixed;" vertex="1" parent="1">
          <mxGeometry x="701" y="2949" width="19" height="19" as="geometry" />
        </mxCell>
        <mxCell id="pSdvG8endxZIBJAOiVjn-3" value="2" style="ellipse;whiteSpace=wrap;html=1;aspect=fixed;" vertex="1" parent="1">
          <mxGeometry x="646" y="3125" width="19" height="19" as="geometry" />
        </mxCell>
        <mxCell id="pSdvG8endxZIBJAOiVjn-4" value="3" style="ellipse;whiteSpace=wrap;html=1;aspect=fixed;" vertex="1" parent="1">
          <mxGeometry x="568" y="2987" width="19" height="19" as="geometry" />
        </mxCell>
        <mxCell id="pSdvG8endxZIBJAOiVjn-5" value="4" style="ellipse;whiteSpace=wrap;html=1;aspect=fixed;" vertex="1" parent="1">
          <mxGeometry x="748" y="3035" width="19" height="19" as="geometry" />
        </mxCell>
        <mxCell id="pSdvG8endxZIBJAOiVjn-6" value="5" style="ellipse;whiteSpace=wrap;html=1;aspect=fixed;" vertex="1" parent="1">
          <mxGeometry x="781" y="3132" width="19" height="19" as="geometry" />
        </mxCell>
      </root>
    </mxGraphModel>
  </diagram>
</mxfile>
